<?xml version="1.0" encoding="utf-8"?>
<!-- Generator: Adobe Illustrator 26.0.2, SVG Export Plug-In . SVG Version: 6.00 Build 0)  -->
<svg version="1.1" id="Layer_1" xmlns="http://www.w3.org/2000/svg" xmlns:xlink="http://www.w3.org/1999/xlink" x="0px" y="0px"
	 viewBox="0 0 1024 579" style="enable-background:new 0 0 1024 579;" xml:space="preserve">
<style type="text/css">
	.st0{fill:#D1D1D1;}
	.st1{fill:url(#SVGID_1_);}
	.st2{fill:url(#SVGID_00000026863405938547953080000010232052050440083344_);}
	.st3{fill:url(#SVGID_00000011003340387863535810000003758258781041609091_);}
</style>
<path class="st0" d="M41.1,35.4h272.8c6.6,0,12,5.4,12,12v213.7c0,6.6-5.4,12-12,12H41.1c-6.6,0-12-5.4-12-12V47.4
	C29.1,40.7,34.5,35.4,41.1,35.4z"/>
<path class="st0" d="M375.6,35.4h272.8c6.6,0,12,5.4,12,12v213.7c0,6.6-5.4,12-12,12H375.6c-6.6,0-12-5.4-12-12V47.4
	C363.6,40.7,369,35.4,375.6,35.4z"/>
<path class="st0" d="M710.1,35.4h272.8c6.6,0,12,5.4,12,12v213.7c0,6.6-5.4,12-12,12H710.1c-6.6,0-12-5.4-12-12V47.4
	C698.1,40.7,703.5,35.4,710.1,35.4z"/>
<linearGradient id="SVGID_1_" gradientUnits="userSpaceOnUse" x1="177.49" y1="40.03" x2="177.49" y2="277.77" gradientTransform="matrix(1 0 0 -1 0 580)">
	<stop  offset="0" style="stop-color:#FFFFFF;stop-opacity:0"/>
	<stop  offset="1" style="stop-color:#D1D1D1"/>
</linearGradient>
<path class="st1" d="M41.1,302.2h272.8c6.6,0,12,5.4,12,12V528c0,6.6-5.4,12-12,12H41.1c-6.6,0-12-5.4-12-12V314.2
	C29.1,307.6,34.5,302.2,41.1,302.2z"/>
<linearGradient id="SVGID_00000006708963842181133110000004684275964803562403_" gradientUnits="userSpaceOnUse" x1="512" y1="40.03" x2="512" y2="277.77" gradientTransform="matrix(1 0 0 -1 0 580)">
	<stop  offset="0" style="stop-color:#FFFFFF;stop-opacity:0"/>
	<stop  offset="1" style="stop-color:#D1D1D1"/>
</linearGradient>
<path style="fill:url(#SVGID_00000006708963842181133110000004684275964803562403_);" d="M375.6,302.2h272.8c6.6,0,12,5.4,12,12V528
	c0,6.6-5.4,12-12,12H375.6c-6.6,0-12-5.4-12-12V314.2C363.6,307.6,369,302.2,375.6,302.2z"/>
<linearGradient id="SVGID_00000060017562118799947950000013072302658306107054_" gradientUnits="userSpaceOnUse" x1="846.5099" y1="40.03" x2="846.5099" y2="277.77" gradientTransform="matrix(1 0 0 -1 0 580)">
	<stop  offset="0" style="stop-color:#FFFFFF;stop-opacity:0"/>
	<stop  offset="1" style="stop-color:#D1D1D1"/>
</linearGradient>
<path style="fill:url(#SVGID_00000060017562118799947950000013072302658306107054_);" d="M710.1,302.2h272.8c6.6,0,12,5.4,12,12V528
	c0,6.6-5.4,12-12,12H710.1c-6.6,0-12-5.4-12-12V314.2C698.1,307.6,703.5,302.2,710.1,302.2z"/>
</svg>
