<svg xmlns="http://www.w3.org/2000/svg" width="113.609" height="56.804" viewBox="0 0 113.609 56.804"><g transform="translate(-4971.195 -1167.598)"><path d="M0,105.609v-16A40.851,40.851,0,0,0,40.8,48.8,40.851,40.851,0,0,0,0,8V-8A56.869,56.869,0,0,1,56.8,48.8,56.869,56.869,0,0,1,0,105.609Z" transform="translate(4979.195 1224.402) rotate(-90)" fill="#707070"/><path d="M0,46.844v-16A11.435,11.435,0,0,0,11.422,19.422,11.435,11.435,0,0,0,0,8V-8A27.453,27.453,0,0,1,27.422,19.422,27.453,27.453,0,0,1,0,46.844Z" transform="translate(5008.578 1224.402) rotate(-90)" fill="#707070"/></g></svg>