<?xml version="1.0" encoding="utf-8"?>
<!-- Generator: Adobe Illustrator 26.5.0, SVG Export Plug-In . SVG Version: 6.00 Build 0)  -->
<svg version="1.1" id="Layer_1" xmlns="http://www.w3.org/2000/svg" xmlns:xlink="http://www.w3.org/1999/xlink" x="0px" y="0px"
	 viewBox="0 0 128 128" style="enable-background:new 0 0 128 128;" xml:space="preserve">
<style type="text/css">
	.st0{fill:#bbbbbb;}
</style>
<g transform="translate(-4971.195 -1167.598)">
	<path class="st0" d="M5098.9,1263.4h-17.9c0-25.3-20.5-45.7-45.8-45.7c-25.3,0-45.7,20.5-45.7,45.7h-17.9
		c0-35.2,28.5-63.6,63.7-63.7C5070.4,1199.8,5098.8,1228.3,5098.9,1263.4z"/>
	<path class="st0" d="M5065.9,1263.4H5048c0-7.1-5.7-12.8-12.8-12.8c-7.1,0-12.8,5.7-12.8,12.8h-17.9c0-17,13.8-30.7,30.7-30.7
		C5052.2,1232.7,5065.9,1246.5,5065.9,1263.4z"/>
</g>
</svg>
