<svg xmlns="http://www.w3.org/2000/svg" width="114.146" height="114.146" viewBox="0 0 114.146 114.146"><g transform="translate(-4636.927 -1133.927)"><path d="M54.5,119.573v-16A49.129,49.129,0,0,0,103.573,54.5h16A65.147,65.147,0,0,1,54.5,119.573Z" transform="translate(4582.427 1079.427)" fill="#707070"/><path d="M62.5,111.573h-16A65.147,65.147,0,0,1,111.573,46.5v16A49.129,49.129,0,0,0,62.5,111.573Z" transform="translate(4639.5 1136.5)" fill="#707070"/><path d="M111.573,119.573A65.147,65.147,0,0,1,46.5,54.5h16a49.129,49.129,0,0,0,49.073,49.073Z" transform="translate(4639.5 1079.427)" fill="#707070" opacity="0.5"/><path d="M119.573,111.573h-16A49.129,49.129,0,0,0,54.5,62.5v-16A65.147,65.147,0,0,1,119.573,111.573Z" transform="translate(4582.427 1136.5)" fill="#707070" opacity="0.5"/></g></svg>