<svg xmlns="http://www.w3.org/2000/svg" width="109" height="109" viewBox="0 0 109 109"><g transform="translate(-4807 -1981)"><circle cx="54.5" cy="54.5" r="54.5" transform="translate(4807 1981)" fill="#707070" opacity="0.5"/><path d="M0,0H18.5A17.5,17.5,0,0,1,36,17.5v0A17.5,17.5,0,0,1,18.5,35H0a0,0,0,0,1,0,0V0A0,0,0,0,1,0,0Z" transform="translate(4831.162 2013.354) rotate(-30)" fill="#707070" opacity="0.5"/><path d="M0,0H18.5A17.5,17.5,0,0,1,36,17.5v0A17.5,17.5,0,0,1,18.5,35H0a0,0,0,0,1,0,0V0A0,0,0,0,1,0,0Z" transform="translate(4846.162 2039.335) rotate(-30)" fill="#707070" opacity="0.5"/></g></svg>