<?xml version="1.0" standalone="no"?>
<!DOCTYPE svg PUBLIC "-//W3C//DTD SVG 20010904//EN"
 "http://www.w3.org/TR/2001/REC-SVG-20010904/DTD/svg10.dtd">
<svg version="1.0" xmlns="http://www.w3.org/2000/svg"
 width="512.000000pt" height="512.000000pt" viewBox="0 0 512.000000 512.000000"
 preserveAspectRatio="xMidYMid meet">
<metadata>
Created by potrace 1.14, written by Peter Selinger 2001-2017
</metadata>
<g transform="translate(0.000000,512.000000) scale(0.100000,-0.100000)"
fill="#000000" stroke="none">
<path d="M1120 4861 c-210 -55 -369 -191 -457 -390 -26 -59 -41 -117 -73 -296
-10 -60 -29 -159 -40 -220 -12 -60 -23 -119 -24 -130 -12 -71 -38 -210 -41
-215 -2 -3 -6 -26 -9 -51 -3 -24 -8 -55 -11 -69 -6 -28 -22 -111 -29 -150 -2
-14 -11 -65 -21 -115 -9 -49 -19 -101 -21 -115 -3 -14 -9 -47 -14 -75 -5 -27
-12 -63 -15 -80 -3 -16 -7 -39 -9 -50 -8 -39 -86 -461 -91 -495 -4 -19 -10
-53 -15 -75 -5 -22 -12 -62 -16 -90 -3 -27 -7 -52 -9 -55 -3 -4 -64 -332 -70
-370 -2 -17 -8 -48 -37 -195 -10 -55 -21 -116 -24 -135 -3 -19 -16 -91 -29
-160 -14 -69 -27 -138 -30 -155 -2 -16 -7 -41 -10 -55 -20 -102 -24 -143 -21
-233 4 -113 14 -160 50 -242 86 -192 247 -330 452 -385 66 -18 139 -19 1759
-17 l1690 2 76 27 c193 68 346 213 417 393 16 41 56 216 76 338 3 15 7 35 10
45 3 9 7 33 10 52 3 19 12 71 21 115 9 44 18 89 19 100 5 26 12 67 36 190 23
116 97 506 105 550 3 17 8 46 11 65 3 19 7 41 10 49 2 8 7 30 10 50 3 20 12
68 19 106 8 39 16 82 19 96 2 14 13 73 24 130 28 139 81 417 86 452 3 15 7 35
10 45 3 9 7 33 10 52 3 19 8 46 11 60 2 14 7 36 10 50 2 14 7 39 10 55 10 60
16 90 20 105 2 8 7 31 10 50 3 19 10 58 15 85 5 28 12 61 14 75 2 14 14 72 25
130 11 58 23 119 26 135 5 29 8 48 20 105 2 14 7 41 10 60 3 19 10 50 15 67 4
18 7 86 6 150 -3 90 -8 133 -25 183 -73 212 -224 364 -441 442 l-65 23 -1700
2 c-1578 1 -1705 0 -1765 -16z"/>
</g>
</svg>
