<?xml version="1.0" encoding="UTF-8"?>
<!DOCTYPE svg PUBLIC "-//W3C//DTD SVG 1.1//EN" "http://www.w3.org/Graphics/SVG/1.1/DTD/svg11.dtd">
<svg version="1.1" xmlns="http://www.w3.org/2000/svg" xmlns:xlink="http://www.w3.org/1999/xlink" x="0" y="0" width="310.278" height="274.051" viewBox="0, 0, 310.278, 274.051">
  <g id="Layer_1">
    <path d="M301.227,240.29 C296.47,237.539 290.983,237.213 286.168,238.905 C282.735,239.641 279.544,239.747 274.276,236.71 C265.504,231.641 243.979,219.211 243.979,219.211 C237.038,215.199 231.35,205.36 231.35,197.342 C231.35,197.342 231.35,172.272 231.35,162.137 C231.35,156.052 233.035,153.347 235.393,150.736 C236.614,149.696 237.663,148.479 238.567,147.156 C234.322,150.054 229.033,151.767 223.31,151.767 C218.096,151.767 213.26,150.346 209.231,147.906 C209.927,148.829 210.712,149.696 211.576,150.462 C214.08,153.187 215.91,155.858 215.91,162.196 C215.91,172.323 215.914,197.341 215.914,197.341 C215.914,205.359 210.232,215.198 203.289,219.21 L172.707,236.872 C167.62,239.733 164.481,239.627 161.105,238.904 C159.359,238.296 157.534,237.961 155.683,237.89 C165.292,241.204 172.124,249.646 172.124,259.537 C172.124,260.556 172.045,261.56 171.904,262.539 C172.273,261.6 172.577,260.643 172.785,259.665 C173.888,256.139 175.289,253.212 180.772,250.051 C189.544,244.978 211.006,232.573 211.006,232.573 C217.948,228.566 229.312,228.566 236.259,232.573 C236.259,232.573 257.726,244.977 266.516,250.051 C271.992,253.212 273.393,256.139 274.495,259.665 C275.523,264.532 278.497,268.944 283.135,271.624 C291.783,276.618 302.849,273.656 307.846,264.998 C312.851,256.351 309.88,245.284 301.227,240.29 z M298.063,259.482 C296.167,262.779 291.961,263.907 288.664,262.003 C285.377,260.107 284.248,255.901 286.143,252.605 C288.051,249.312 292.256,248.193 295.545,250.088 C298.838,251.988 299.971,256.193 298.063,259.482 z" fill="#0190FD"/>
    <path d="M137.666,259.156 C137.666,248.814 146.466,240.179 158.178,238.138 C155.137,237.626 152.027,237.9 149.164,238.905 C145.717,239.641 142.541,239.747 137.269,236.71 C128.491,231.641 106.973,219.211 106.973,219.211 C100.026,215.199 94.344,205.36 94.344,197.342 C94.344,197.342 94.346,172.272 94.346,162.137 C94.346,156.55 95.77,153.813 97.83,151.377 C95.199,152.126 92.373,152.539 89.435,152.539 C82.225,152.539 75.708,150.088 71.02,146.132 C71.979,147.754 73.177,149.215 74.568,150.462 C77.074,153.187 78.901,155.858 78.901,162.196 C78.901,172.323 78.907,197.341 78.907,197.341 C78.907,205.359 73.227,215.198 66.278,219.21 L35.698,236.872 C30.609,239.733 27.474,239.627 24.103,238.904 C19.293,237.212 13.806,237.538 9.052,240.289 C0.395,245.283 -2.568,256.351 2.424,264.999 C7.423,273.657 18.485,276.619 27.138,271.625 C31.772,268.945 34.757,264.533 35.775,259.666 C36.882,256.14 38.281,253.213 43.767,250.052 C52.543,244.979 73.996,232.574 73.996,232.574 C80.945,228.567 92.311,228.567 99.255,232.574 C99.255,232.574 120.727,244.978 129.499,250.052 C134.984,253.213 136.384,256.14 137.49,259.666 C137.547,259.966 137.644,260.257 137.724,260.543 C137.683,260.089 137.666,259.623 137.666,259.156 z M21.605,262.003 C18.321,263.906 14.112,262.778 12.209,259.482 C10.312,256.193 11.438,251.988 14.73,250.088 C18.018,248.192 22.228,249.312 24.126,252.605 C26.029,255.902 24.898,260.108 21.605,262.003 z" fill="#FBE700"/>
    <path d="M220.991,119.148 C219.803,119.317 218.63,119.593 217.501,119.994 C214.063,120.724 210.871,120.829 205.599,117.788 C196.823,112.721 175.298,100.295 175.298,100.295 C168.352,96.288 162.675,86.445 162.675,78.422 C162.675,78.422 162.675,53.358 162.675,43.224 C162.675,37.141 164.367,34.431 166.72,31.816 C170.592,28.502 173.051,23.587 173.051,18.092 C173.051,8.097 164.952,0 154.96,0 C144.963,0 136.87,8.097 136.87,18.093 C136.87,23.444 139.204,28.238 142.902,31.553 C145.408,34.271 147.24,36.944 147.24,43.281 C147.24,53.412 147.24,78.424 147.24,78.424 C147.24,86.446 141.556,96.289 134.615,100.297 L104.03,117.956 C98.939,120.819 95.809,120.711 92.433,119.997 C91.598,119.697 90.741,119.492 89.872,119.323 C95.803,123.387 99.849,131.498 99.849,140.843 C99.849,144.359 99.274,147.702 98.24,150.719 C101.299,148.078 103.311,144.554 104.107,140.759 C105.213,137.224 106.61,134.303 112.101,131.136 C120.877,126.071 142.329,113.662 142.329,113.662 C149.278,109.653 160.647,109.653 167.585,113.662 C167.585,113.662 189.052,126.071 197.828,131.136 C203.315,134.303 204.727,137.223 205.824,140.759 C206.017,141.711 206.322,142.643 206.676,143.553 C207.354,132.923 212.982,123.83 220.991,119.148 z M154.841,24.989 C151.043,24.989 147.966,21.91 147.966,18.112 C147.966,14.312 151.043,11.227 154.841,11.227 C158.649,11.227 161.722,14.312 161.722,18.112 C161.723,21.91 158.649,24.989 154.841,24.989 z" fill="#04D9FF"/>
    <path d="M239.435,127.964 C234.436,119.316 223.372,116.345 214.715,121.341 C210.078,124.017 207.099,128.44 206.084,133.296 C204.974,136.829 203.575,139.754 198.088,142.912 C189.312,147.984 167.862,160.391 167.862,160.391 C160.911,164.397 149.549,164.397 142.6,160.391 C142.6,160.391 121.133,147.984 112.357,142.912 C106.872,139.754 105.469,136.829 104.365,133.296 C103.347,128.44 100.363,124.017 95.727,121.341 C87.077,116.345 76.01,119.316 71.016,127.964 C66.02,136.619 68.986,147.676 77.637,152.675 C82.398,155.424 87.883,155.75 92.692,154.057 C96.129,153.321 99.32,153.224 104.585,156.263 C113.363,161.325 134.881,173.752 134.881,173.752 C141.83,177.763 147.515,187.606 147.515,195.627 C147.515,195.627 147.508,220.691 147.508,230.826 C147.508,236.904 145.824,239.619 143.471,242.233 C139.602,245.547 137.138,250.459 137.138,255.963 C137.138,265.952 145.24,274.05 155.233,274.05 C165.231,274.05 173.324,265.952 173.324,255.963 C173.324,250.603 170.978,245.812 167.289,242.502 C164.781,239.777 162.956,237.106 162.956,230.772 C162.956,220.638 162.952,195.627 162.952,195.627 C162.952,187.606 168.634,177.766 175.577,173.752 L206.15,156.101 C211.242,153.235 214.38,153.344 217.752,154.058 C222.561,155.75 228.054,155.424 232.805,152.676 C241.472,147.677 244.43,136.619 239.435,127.964 z M92.719,140.359 C90.815,143.65 86.608,144.78 83.317,142.877 C80.028,140.977 78.9,136.774 80.797,133.483 C82.697,130.192 86.907,129.06 90.197,130.96 C93.491,132.862 94.615,137.071 92.719,140.359 z M155.349,262.823 C151.549,262.823 148.463,259.746 148.463,255.942 C148.463,252.137 151.548,249.057 155.349,249.057 C159.14,249.057 162.221,252.137 162.221,255.942 C162.221,259.746 159.14,262.823 155.349,262.823 z M227.129,142.877 C223.84,144.781 219.63,143.65 217.73,140.359 C215.826,137.071 216.964,132.861 220.244,130.959 C223.541,129.059 227.751,130.192 229.651,133.482 C231.545,136.774 230.416,140.977 227.129,142.877 z" fill="#FD2400"/>
  </g>
</svg>
