<?xml version="1.0" encoding="utf-8"?>
<!-- Generator: Adobe Illustrator 27.5.0, SVG Export Plug-In . SVG Version: 6.00 Build 0)  -->
<svg version="1.1" id="Layer_1" xmlns="http://www.w3.org/2000/svg" xmlns:xlink="http://www.w3.org/1999/xlink" x="0px" y="0px"
	 viewBox="0 0 512 512" style="enable-background:new 0 0 512 512;" xml:space="preserve">
<style type="text/css">
	.st0{fill:#3FCF8E;}
</style>
<path class="st0" d="M314.2,197.8c51.1,51.1,54.4,132.3,9.8,187.2c-6.2,7.7-2.8,3.9-84.9,86c-54.7,54.7-143.3,54.7-198,0
	s-54.7-143.3,0-198c32.8-32.8,51.8-51.9,63.4-63.5c7.5-7.5,20.3-2.4,20.5,8.2c0.2,12.7,1.8,25.4,4.7,37.8c1,4-0.3,8.3-3.2,11.2
	l-45.8,45.8c-32.8,32.8-32.9,85.9,0,118.8c32.8,32.8,85.9,32.9,118.8,0l75.2-75.2c32.7-32.7,32.8-86,0-118.8
	c-6.6-6.7-14.4-12.1-22.8-16.2c-4.6-2.2-7.2-7.2-6.6-12.3c1.4-11.1,6.3-21.9,14.8-30.4l4.4-4.4c3.6-3.6,9.2-4.6,13.8-2.3
	C291.2,178.3,303.4,186.9,314.2,197.8L314.2,197.8z M471,41c-54.7-54.7-143.3-54.7-198,0c-82.2,82.2-78.7,78.3-84.9,86
	c-44.6,54.9-41.3,136.1,9.8,187.2c10.8,10.8,23,19.5,36,26c4.6,2.3,10.1,1.3,13.8-2.3l4.4-4.4c8.5-8.5,13.5-19.3,14.8-30.4
	c0.6-5.1-1.9-10.1-6.6-12.3c-8.5-4.1-16.2-9.6-22.8-16.2c-32.8-32.8-32.7-86.1,0-118.8l75.2-75.2c32.9-32.9,86-32.8,118.8,0
	c32.9,32.9,32.8,86,0,118.8l-45.8,45.8c-2.9,2.9-4.2,7.2-3.2,11.2c3,12.4,4.6,25.1,4.7,37.8c0.2,10.5,13,15.6,20.5,8.2
	c11.6-11.6,30.6-30.7,63.4-63.5C525.7,184.3,525.7,95.7,471,41L471,41z"/>
</svg>
