<?xml version="1.0" encoding="utf-8"?>
<!-- Generator: Adobe Illustrator 26.5.0, SVG Export Plug-In . SVG Version: 6.00 Build 0)  -->
<svg version="1.1" id="Layer_1" xmlns="http://www.w3.org/2000/svg" xmlns:xlink="http://www.w3.org/1999/xlink" x="0px" y="0px"
	 viewBox="0 0 500 500" style="enable-background:new 0 0 500 500;" xml:space="preserve">
<style type="text/css">
	.st0{fill:#4D5B6E;}
</style>
<path class="st0" d="M119,301.1l107.2-183.2L354,339.5h-25.5l-30.3-52.6c0,0-23.5-6.1-51-6.1s-27.5,2.8-27.5,2.8l14.6-25.9
	c19.3-0.7,36.3,0.1,48.9,3.6L225.4,163l-92.2,161L119,301.1z"/>
<path class="st0" d="M226.2,194.3l-84.1,145.6h26.3c39.3-19.4,82.7-27.2,135.1-10.5l-15.8-29.1c-37.1-5.8-70.6-4.7-99.9,4.9
	l51.4-88.6L226.2,194.3z"/>
<polygon class="st0" points="239.6,109.7 265.5,109.7 376.3,302.3 363.3,325.7 "/>
<path class="st0" d="M250.5,455.7c-113.6,0-206-92.4-206-206s92.4-206,206-206s206,92.4,206,206S364.1,455.7,250.5,455.7z
	 M250.5,68.2C150.4,68.2,69,149.6,69,249.7s81.4,181.5,181.5,181.5S432,349.8,432,249.7S350.5,68.2,250.5,68.2z"/>
<path class="st0" d="M250.5,495.6c-135.6,0-246-110.3-246-245.9S114.9,3.8,250.5,3.8s245.9,110.3,245.9,245.9
	S386.1,495.6,250.5,495.6z M250.5,27.1C127.8,27.1,27.9,127,27.9,249.7s99.8,222.5,222.5,222.5s222.5-99.8,222.5-222.5
	C473,127,373.2,27.1,250.5,27.1z"/>
</svg>
