<?xml version="1.0" encoding="utf-8"?>
<!-- Generator: Adobe Illustrator 26.0.2, SVG Export Plug-In . SVG Version: 6.00 Build 0)  -->
<svg version="1.1" id="Layer_1" xmlns="http://www.w3.org/2000/svg" xmlns:xlink="http://www.w3.org/1999/xlink" x="0px" y="0px"
	 viewBox="0 0 500 500" style="enable-background:new 0 0 500 500;" xml:space="preserve">
<style type="text/css">
	.st0{fill:#4D5B6E;}
</style>
<path id="XMLID_4_" class="st0" d="M10.3,264c0-8.7,0-17.4,0-26c0.2-1,0.5-1.9,0.6-2.9c3.7-51.2,21.2-97.1,54-136.6
	c40.7-49.2,93.1-77.8,156.4-86.3c5.4-0.7,10.8-1.3,16.2-1.9c8.7,0,17.4,0,26,0c1,0.2,1.9,0.5,2.9,0.5c18.4,1.2,36.4,4.5,54,9.8
	c93.1,28.1,160.3,110,169.6,206.7c4.3,44.8-3.3,87.6-22.9,128.1c-54.6,112.4-184.8,164-301.8,119.9C82.3,444,22.7,368.1,12.1,280.2
	C11.5,274.8,10.9,269.4,10.3,264z"/>
</svg>
