<?xml version="1.0" encoding="utf-8"?>
<!-- Generator: Adobe Illustrator 26.0.2, SVG Export Plug-In . SVG Version: 6.00 Build 0)  -->
<svg version="1.1" id="arbitrum" xmlns="http://www.w3.org/2000/svg" xmlns:xlink="http://www.w3.org/1999/xlink" x="0px" y="0px"
	 viewBox="0 0 500 500" style="enable-background:new 0 0 500 500;" xml:space="preserve">
<style type="text/css">
	.st0{fill:#4D5B6E;}
</style>
<polygon class="st0" points="251.4,322.6 320.3,430.9 384.1,394 293.5,251.2 "/>
<path class="st0" d="M442.1,350.5l0-29.6l-99-154.2l-36.7,62.3l95.5,154.5l34.5-20c3.4-2.8,5.4-6.8,5.7-11.1L442.1,350.5z"/>
<path class="st0" d="M27.3,378.4l48.8,28.1l162.3-260.4l-27.6-0.7c-23.5-0.3-48.8,5.8-60.4,24.7L58.3,313.1l-31,47.7
	C27.3,360.7,27.3,378.4,27.3,378.4z"/>
<polygon class="st0" points="332.2,146.2 259.5,146.5 95.2,417.6 152.7,450.6 168.3,424.1 "/>
<path class="st0" d="M472.7,145.8c-0.6-15.2-8.8-29.1-21.7-37.2L270.4,4.8c-12.7-6.4-28.7-6.4-41.4,0
	C227.5,5.6,53.5,106.5,53.5,106.5c-2.4,1.2-4.7,2.5-6.9,4.1c-11.5,8.2-18.5,21-19.2,35.1v215l31-47.7l-0.3-165.9
	c0-0.6,0.1-1.2,0.2-1.8c0.7-3.9,2.9-7.4,6.2-9.7c0.8-0.6,177.8-103.1,178.4-103.3c4.2-2.1,9.4-2.1,13.6-0.1l178.2,102.5
	c4.2,2.7,6.9,7.2,7.1,12.2v205.5c-0.2,4.4-1.9,8.4-5.3,11.1l-34.5,20L384.1,394l-63.7,36.9l-64.6,37.4c-3.5,1.3-7.6,1.2-11-0.2
	l-76.4-44l-15.6,26.5l68.7,39.6c2.3,1.3,4.3,2.4,6,3.4c2.6,1.4,4.3,2.4,4.9,2.7c4.9,2.4,11.9,3.8,18.2,3.8c5.8,0,11.5-1.1,16.8-3.2
	L455,388.2c10.8-8.3,17.1-20.9,17.7-34.6V145.8z"/>
</svg>
