<?xml version="1.0" encoding="utf-8"?>
<!-- Generator: Adobe Illustrator 26.0.2, SVG Export Plug-In . SVG Version: 6.00 Build 0)  -->
<svg version="1.1" id="aurora" xmlns="http://www.w3.org/2000/svg" xmlns:xlink="http://www.w3.org/1999/xlink" x="0px" y="0px"
	 viewBox="0 0 500 500" style="enable-background:new 0 0 500 500;" xml:space="preserve">
<style type="text/css">
	.st0{fill:#4D5B6E;}
</style>
<path class="st0" d="M249.7,51.9c18.3,0,36.5,9.5,45.9,28.5l141,285.5c16.8,34-8,73.8-45.9,73.8H107c-38,0-62.8-40-45.8-74.1
	L203.9,80.2C213.4,61.3,231.5,51.9,249.7,51.9 M249.7,15.9c-33.2,0-63.1,18.5-78,48.2L29.1,349.6c-13.6,27.2-12.2,58.9,3.8,84.8
	c16,25.9,43.7,41.3,74.2,41.3h283.6c30.3,0,58-15.4,74-41.2c16-25.8,17.6-57.4,4.1-84.6l-141-285.5
	C313.1,34.5,283.1,15.9,249.7,15.9L249.7,15.9z"/>
</svg>
