<?xml version="1.0" encoding="utf-8"?>
<!-- Generator: Adobe Illustrator 26.0.2, SVG Export Plug-In . SVG Version: 6.00 Build 0)  -->
<svg version="1.1" id="Layer_1" xmlns="http://www.w3.org/2000/svg" xmlns:xlink="http://www.w3.org/1999/xlink" x="0px" y="0px"
	 viewBox="0 0 500 500" style="enable-background:new 0 0 500 500;" xml:space="preserve">
<style type="text/css">
	.st0{fill:#4D5B6E;}
</style>
<path class="st0" d="M358.8,247.2c-27.5-27.5-64-42.6-102.9-42.6c-30.1,0-58.9,9.1-83.1,26L136.3,18.9c-1.7-9.8-11-16.4-20.8-14.7
	c-9.8,1.7-16.4,11-14.7,20.8l40.6,235.2c-20.1,25.5-31,56.8-31,89.8c0,38.9,15.1,75.4,42.6,102.9c27.5,27.5,64,42.6,102.9,42.6
	c38.9,0,75.4-15.1,102.9-42.6c27.5-27.5,42.6-64,42.6-102.9C401.4,311.2,386.2,274.6,358.8,247.2z M255.9,462.5
	c-62.1,0-112.5-50.4-112.5-112.5c0-13.6,2.4-26.6,6.8-38.7l3.5,20.1c1.5,8.8,9.1,14.9,17.7,14.9c1,0,2-0.1,3.1-0.3
	c9.8-1.7,16.4-11,14.7-20.8l-10-57.7c20.1-18.7,47-30.2,76.7-30.2c62.1,0,112.5,50.4,112.5,112.5S318,462.5,255.9,462.5z"/>
</svg>
