<?xml version="1.0" encoding="utf-8"?>
<!-- Generator: Adobe Illustrator 26.5.0, SVG Export Plug-In . SVG Version: 6.00 Build 0)  -->
<svg version="1.1" id="Layer_1" xmlns="http://www.w3.org/2000/svg" xmlns:xlink="http://www.w3.org/1999/xlink" x="0px" y="0px"
	 viewBox="0 0 500 500" style="enable-background:new 0 0 500 500;" xml:space="preserve">
<style type="text/css">
	.st0{fill:#4D5B6E;}
</style>
<path id="XMLID_4_" class="st0" d="M214.3,347.9c-13.8,1.8-32.1-11.7-31.7-31c0.4-18.4,12.8-31.7,32.7-31.8
	c16-0.1,30.7,15.2,30.4,30.9C245.3,334.6,232.2,347.9,214.3,347.9z M358.3,251.3c-0.1-18.3-11.9-31.1-30.8-31.9
	c-16.5-0.7-29.9,11.7-31.8,27.8c-2.2,18.9,11.6,34.7,30.2,35.3C343.2,283.3,358.5,269.2,358.3,251.3z M213.9,154.3
	c-13.4,0-31.4,10.9-31.6,31.4c-0.2,16.5,12.5,31.5,31.9,31.7c17.5,0.2,30.8-13.6,30.8-31.7C246.4,169.3,230.3,154.3,213.9,154.3z
	 M176.7,283.2c17.8-0.5,30.7-12.9,31.2-31.6c0.5-16.9-14.3-31.6-31.3-31.8c-17.3-0.2-31.3,13.9-31.3,31.4
	C144,268.9,159.6,283.7,176.7,283.2z M257.6,185.9c0.7,18.2,11.7,30.4,30.6,31.3c19.6,0.9,32-15.9,32.3-31
	c0.4-15.4-13.8-32.9-31.7-31.6C273.3,152.8,256.9,168.4,257.6,185.9z M289.3,285.2c-19,0.4-30.9,12.5-31.4,31.3
	c-0.4,18.7,15.6,31.7,31.9,31.7c16.1,0,32.4-15.7,30.4-31.1C322.2,301.4,308.6,284.7,289.3,285.2z M140.5,168.4
	c-10.2-0.3-18,7-18.3,17.1c-0.3,11.6,6.6,19.5,17.4,19.7c10.2,0.2,17.8-7.2,18.1-17.5C157.9,176.9,150.6,168.7,140.5,168.4z
	 M344.8,186.7c0.1,9.8,8.1,17.5,18.2,17.6c10.3,0.1,18.8-8.1,18.6-18c-0.2-10.2-8.2-18-18.6-18C352.9,168.4,344.7,176.7,344.8,186.7
	z M233.1,122.6c-0.6,9.4,8.6,17.6,18.3,17.5c9.9-0.1,18.3-8.2,18.2-17.7c-0.1-10.7-7.5-18.4-17.8-18.5
	C238.9,104.1,233.8,111.9,233.1,122.6z M364,297.3c-9.8-0.2-18.7,8.1-19.2,18c-0.5,9.4,8.3,18.4,18.3,18.8
	c9.5,0.4,18.3-8.4,18.5-18.4C381.8,306.2,373.4,297.5,364,297.3z M140.5,334.3c9.3-0.1,19-8.9,18.2-17.8c-1-10.4-5.6-17.9-18.3-18.2
	c-10.4-0.3-18.1,7-18.1,17.1C122.3,326.9,129.5,334.4,140.5,334.3z M268.8,380.4c0-10.2-8.2-18.2-18.5-18c-10,0.2-17.8,8-17.8,17.8
	c0,10.9,7.3,18.4,18,18.4C260.8,398.6,268.8,390.6,268.8,380.4z M419.3,235.3c-8.1-0.2-15.8,6.9-16.1,14.9
	c-0.3,8.2,7.1,16.3,15.5,16.3c7,0.1,15.6-5.1,15.3-15.2C434.2,242.8,427.5,235.5,419.3,235.3z M152.8,107.9
	c0.3,8.2,7.2,14.3,15.6,14c8.6-0.4,14.7-7.3,14.3-16.2c-0.4-8.7-7.5-15.7-15.5-15.4C158.3,90.5,152.4,97.7,152.8,107.9z M84.5,235.9
	c-7.9,0-15.8,7.6-15.9,15.5c-0.1,8.1,7.3,15.7,15.5,15.7c8.6,0,15.2-6.3,15.2-14.5C99.4,242.7,93.4,236,84.5,235.9z M153,396
	c0,9.1,6.6,16.2,15.2,16.3c8.5,0.1,15.4-7,15.5-16.1c0.1-8.2-6.4-14.7-14.9-14.8C159.6,381.5,153,387.5,153,396z M335.5,381.1
	c-8.6,0.2-15.4,7.1-15.3,15.6c0.2,8,7.7,15.6,15.5,15.6c7.5,0,15.2-8,15.2-16C350.9,387.8,344,380.9,335.5,381.1z M334.6,120.9
	c8.6,0.2,15.7-6.4,16.1-14.7c0.4-7.8-7.3-15.9-15.2-16.1c-8.8-0.2-15.1,6-15.3,15.1C320,114.7,325.6,120.8,334.6,120.9z M251.2,57.4
	c7,0,12.2-5.5,12.2-12.7c0-7.7-4.7-12.8-11.9-12.9c-7.4-0.1-12.7,5.3-12.7,12.9C238.9,51.9,244.4,57.4,251.2,57.4z M73,367.8
	c6.6,0.4,13.5-6.1,13.5-12.8c0-6.2-6.3-12.8-12.6-13.1c-5.8-0.4-12.9,6.4-13,12.6C60.8,361,66.5,367.3,73,367.8z M250.6,444.9
	c-6.3,0-12.5,6.4-12.6,12.8c-0.1,6.5,5.9,12.8,12.3,12.9c6.8,0.1,13.2-6.2,13.1-13.1C263.4,451.3,256.8,444.9,250.6,444.9z
	 M442.9,147.2c-0.2-6.2-6.9-12.5-13.2-12.5c-6-0.1-12.9,6.9-12.8,12.9c0.1,6.2,6.9,13.2,12.7,13.1
	C436,160.5,443.2,153.3,442.9,147.2z M443,353.6c-0.1-6.8-5.7-11.9-12.9-11.8c-6.8,0.1-12.7,5.9-12.5,12.4
	c0.3,6.9,5.8,12.2,12.6,12.2C438,366.3,443.1,361.2,443,353.6z M60.9,148.5c-0.1,7.4,4.8,12.3,12.4,12.2c7.4-0.1,12.4-5.1,12.2-12.5
	c-0.2-7.4-5-12.1-12.4-12.1C65.8,136.2,61,141,60.9,148.5z M354.9,54.1c-0.1,6.3,4.3,9.3,9.5,9.6c5.4,0.3,9.5-2.8,9.7-9
	c0.2-6-3.6-10.4-9.2-10.6C359.7,44,355,48.5,354.9,54.1z M14.9,251.6c-0.2,4.6,5.6,10.9,10.2,10.2c5.4-0.8,9.3-3.9,9.6-9.8
	c0.3-5.4-4.5-10-10.1-10C19.7,242,15.1,246.5,14.9,251.6z M355.7,448.2c-0.1,4.8,5.2,9.9,10.3,10c4.2,0.1,9.7-5.7,9.5-10.2
	c-0.4-5.9-3.9-8.9-8.3-9.4C359.8,438.4,355.8,442.1,355.7,448.2z M138.3,44.4c-5.1-1-9.9,4.3-9.9,10.1c-0.1,5.8,2.8,9,8.4,9.6
	c6.1,0.6,10.4-3.4,10.6-10.6C147.8,48.2,143.6,45.4,138.3,44.4z M488.2,250.8c-0.4-5.7-3.6-9.5-9.4-10.2c-5.3-0.7-9.6,4.1-9.8,10.2
	c-0.3,6.7,4.2,8.5,8.6,9.7C483.5,260.5,488.5,255.9,488.2,250.8z M139.4,438.5c-4.6-0.5-11.2,4.9-10.9,9.6c0.4,5.6,3.8,9.6,9.4,10.1
	c5.7,0.5,9.4-2.7,10.2-7.2C148.9,444.1,144.8,439.1,139.4,438.5z"/>
</svg>
