<?xml version="1.0" encoding="utf-8"?>
<!-- Generator: Adobe Illustrator 26.0.2, SVG Export Plug-In . SVG Version: 6.00 Build 0)  -->
<svg version="1.1" id="celo" xmlns="http://www.w3.org/2000/svg" xmlns:xlink="http://www.w3.org/1999/xlink" x="0px" y="0px"
	 viewBox="0 0 500 500" style="enable-background:new 0 0 500 500;" xml:space="preserve">
<style type="text/css">
	.st0{fill:#4D5B6E;}
</style>
<path class="st0" d="M500,197.4C500,88.4,411.6,0,302.6,0c-81.8,0-152,49.8-181.9,120.7c0,0,0,0,0,0c0,0,0,0,0,0
	C49.8,150.6,0,220.8,0,302.6C0,411.6,88.4,500,197.4,500c81.8,0,152-49.8,181.9-120.7c0,0,0,0,0,0c0,0,0,0,0,0
	C450.2,349.4,500,279.2,500,197.4z M337.7,337.7c-11.2,2.8-22.9,4.4-35,4.4c-79.9,0-144.7-64.8-144.7-144.7c0-12.1,1.6-23.8,4.4-35
	c11.2-2.8,22.9-4.4,35-4.4c79.9,0,144.7,64.8,144.7,144.7C342.1,314.7,340.5,326.4,337.7,337.7z M197.4,447.4
	c-79.9,0-144.7-64.8-144.7-144.7c0-45.1,20.6-85.4,53-111.9c-0.1,2.2-0.3,4.4-0.3,6.6c0,109,88.4,197.4,197.4,197.4
	c2.2,0,4.4-0.3,6.6-0.3c-0.1,0.1-0.1,0.2-0.2,0.2l0,0C282.6,426.8,242.4,447.4,197.4,447.4z M394.4,309.3c0.1-2.2,0.3-4.4,0.3-6.6
	c0-109-88.4-197.4-197.4-197.4c-2.2,0-4.4,0.3-6.6,0.3c26.5-32.3,66.8-53,111.9-53c79.9,0,144.7,64.8,144.7,144.7
	C447.4,242.5,426.7,282.7,394.4,309.3z"/>
</svg>
