<?xml version="1.0" encoding="utf-8"?>
<!-- Generator: Adobe Illustrator 26.5.0, SVG Export Plug-In . SVG Version: 6.00 Build 0)  -->
<svg version="1.1" id="Layer_1" xmlns="http://www.w3.org/2000/svg" xmlns:xlink="http://www.w3.org/1999/xlink" x="0px" y="0px"
	 viewBox="0 0 500 500" style="enable-background:new 0 0 500 500;" xml:space="preserve">
<style type="text/css">
	.st0{fill-rule:evenodd;clip-rule:evenodd;fill:#4D5B6E;}
</style>
<path class="st0" d="M465.1,358.9c-1.1-4.9-3.6-10.3-7.5-16.6l-0.1-0.1c-7.6-11.9-20.4-26.2-37-41.5c-17.7-16.2-39.5-33.4-64-50.7
	c24.5-17.2,46.2-34.4,64-50.7c16.6-15.2,29.4-29.6,37-41.5l0.1-0.1c3.9-6.3,6.4-11.8,7.5-16.6c1.3-5.5,0.8-10.3-1.5-14.2l0,0
	c-2.3-3.8-6.1-6.5-11.4-8.1c-4.8-1.4-10.9-2-18.2-1.8c-13.7,0.5-32,4.2-54.5,11.2c-0.2,0.1-0.4,0.1-0.5,0.2c-3.1-3.1-7.4-5-12.1-5
	c-8.8,0-16,6.6-17,15.1c-15.1,5.8-31,12.5-47.5,20.2c-2.7-29.8-6.7-57.3-11.8-80.8c-4.9-22.4-10.7-40.2-17.3-52.7
	c-3.5-6.6-7-11.4-10.7-14.9c-5.1-4.7-9.7-5.6-12.7-5.6c-4.2,0-8.5,1.9-12.6,5.5l-0.1,0.1c-3.9,3.6-7.5,8.6-10.7,14.9
	c-6.5,12.5-12.4,30.2-17.3,52.6c-5.1,23.3-9.1,50.5-11.8,80.1c-27-12.5-52.6-22.6-75.5-29.8c-22.4-7-40.7-10.8-54.4-11.2
	c-7.2-0.2-13.3,0.4-18.2,1.8c-5.3,1.6-9.1,4.3-11.4,8.1l0,0c0,0,0,0,0,0l-2.2,8.4c0,1.8,0.2,3.7,0.7,5.7c1,4.9,3.6,10.6,7.5,16.8
	c7.2,11.3,18.8,24.5,34.6,39.3c-0.1,0.6-0.1,1.3-0.1,1.9c0,9.4,7.7,17.1,17.1,17.1c1.5,0,2.9-0.2,4.2-0.6
	c13.6,11.3,28.8,22.8,45.2,34.4c-24.5,17.2-46.2,34.4-64,50.7c-16.6,15.2-29.4,29.6-37,41.5l-0.1,0.1c-3.9,6.3-6.4,11.8-7.5,16.6
	c-1.3,5.5-0.8,10.3,1.5,14.2c2.3,3.8,6.1,6.5,11.4,8.1c4.1,1.2,9.2,1.8,15.1,1.8c1,0,2,0,3.1-0.1c13.7-0.5,32-4.2,54.5-11.2
	c22.8-7.1,48.4-17.3,75.5-29.8c1.8,19.4,4.1,37.8,6.9,54.7c-3.2,3.1-5.1,7.4-5.1,12.2c0,7.1,4.4,13.2,10.6,15.8
	c4.8,21.1,10.4,37.9,16.7,49.9c3.5,6.6,7,11.4,10.7,14.9c5.1,4.7,9.7,5.6,12.7,5.6c4.4,0,8.7-1.9,12.7-5.6
	c3.9-3.6,7.5-8.7,10.7-14.9c6.5-12.5,12.4-30.2,17.3-52.6c5.2-23.5,9.2-50.8,11.8-80.6c27.7,12.9,53.9,23.3,77.1,30.5l2.5-7.9l0-0.1
	l-2.5,8.1c22,6.9,40.3,10.6,54.4,11.2l0.3-7.9l-0.3,7.8c5.8,0.2,10.5-0.1,14.5-0.9l0.2,0.1l2.7-0.8c0.3-0.1,0.6-0.2,0.9-0.3
	c5.2-1.6,9-4.3,11.3-8.1C465.9,369.1,466.4,364.3,465.1,358.9z M356.4,154.1c2.9,2.3,6.6,3.7,10.5,3.7c8.1,0,14.8-5.6,16.6-13.2
	c0.3-0.1,0.6-0.2,1-0.3c21-6.6,37.8-10.1,50-10.5c5.3-0.2,9.9,0.2,12.8,1.1c0.9,0.3,1.5,0.6,1.8,0.7c0,0.3-0.1,0.9-0.3,1.9
	c-0.7,3-2.5,6.9-5.4,11.5c-6.8,10.7-18.7,23.9-34.2,38.1C390.9,204,368,221.9,342,239.9c-11.6-7.8-23.6-15.6-36.1-23.3
	c-0.4-13.7-1.1-27-2-40.1C322.2,168,339.8,160.4,356.4,154.1z M233.3,305.6c-7.1,3.7-14.2,7.3-21.2,10.8c-0.5-7.8-0.9-15.7-1.2-23.8
	c3.8,2.2,7.5,4.4,11.3,6.6l0,0C225.9,301.4,229.6,303.5,233.3,305.6z M230.9,285l-20.6-14.6c-0.1-6.8-0.2-13.6-0.2-20.5
	c0-3.4,0-6.8,0.1-10.2l11,6.5c-0.2,1.2-0.2,2.4-0.2,3.7c0,16,13,28.9,28.9,28.9c6.3,0,12.1-2,16.9-5.4l11.8,7
	c-2.5,1.5-5,2.9-7.5,4.4c-6.1,3.5-12.1,6.9-18.1,10.2L230.9,285z M270.9,215.2c6.3,3.6,12.5,7.3,18.5,11c0.2,7.8,0.3,15.8,0.3,23.8
	c0,6,0,11.9-0.1,17.8l-12.7-7.6c1.2-3.2,1.9-6.6,1.9-10.2c0-16-13-28.9-28.9-28.9c-8.7,0-16.5,3.9-21.8,10l-12-7.2
	c4.8-2.9,9.7-5.7,14.6-8.6c6.7-3.9,13.5-7.7,20.2-11.4C257.5,207.5,264.2,211.3,270.9,215.2z M268.2,194.4c6.6-3.5,13.1-6.8,19.6-10
	c0.5,7.2,0.8,14.5,1.1,22c-3.2-1.9-6.4-3.8-9.6-5.6C275.6,198.6,271.9,196.5,268.2,194.4z M222.2,200.8c-3.8,2.2-7.6,4.4-11.3,6.6
	c0.3-8,0.7-16,1.2-23.8c7,3.5,14.1,7.1,21.2,10.8C229.6,196.5,225.9,198.6,222.2,200.8z M193.5,258.5l-15.5-11
	c5.1-3.3,10.3-6.7,15.5-10c0,4.1-0.1,8.2-0.1,12.3C193.5,252.8,193.5,255.7,193.5,258.5z M279.3,299.3c3.2-1.9,6.4-3.7,9.6-5.6
	c-0.2,5.9-0.5,11.8-0.9,17.6l-16.5-7.6C274.1,302.2,276.7,300.7,279.3,299.3z M306.3,236.5c7.1,4.5,14.1,9,20.9,13.5
	c-6.8,4.5-13.8,9-20.9,13.5c0.1-4.5,0.1-9.1,0.1-13.6C306.4,245.4,306.3,240.9,306.3,236.5z M225.4,81.6c4.5-20.7,10-37.5,15.8-48.6
	c2.9-5.6,5.5-8.7,7.2-10.2c0.7-0.6,1.2-1,1.5-1.1c0.3,0.2,0.8,0.5,1.4,1.1c1.6,1.5,4.1,4.4,7.3,10.4c5.8,11,11.2,27.8,15.8,48.5
	c5.4,24.5,9.5,53.4,12,84.9c-11.7,5.7-23.7,11.9-35.7,18.3c-12.6-6.8-25.1-13.2-37.3-19.1C216,134.5,220.1,105.9,225.4,81.6z
	 M67,133.8c12.2,0.4,29.1,3.9,50,10.5c23.7,7.4,50.6,18.2,79,31.6c-0.8,11.4-1.4,23-1.8,34.9l-128.9-77
	C65.8,133.7,66.4,133.7,67,133.8z M112.4,201.3c0.1-0.7,0.2-1.4,0.2-2.2c0-9.4-7.7-17.1-17.1-17.1c-2.4,0-4.6,0.5-6.6,1.3L58,148.8
	l0-0.1l126,75.3c-7,4.4-13.8,8.9-20.5,13.3L112.4,201.3z M117,355.8c-21,6.6-37.8,10.1-50,10.5c-5.3,0.2-9.9-0.2-12.8-1.1
	c-0.9-0.3-1.5-0.6-1.8-0.7c0-0.3,0.1-0.9,0.3-1.9c0.7-3,2.5-6.9,5.4-11.5c6.8-10.7,18.7-23.9,34.2-38.1
	c18.5-16.9,41.4-34.9,67.4-52.9c11,7.5,22.5,14.9,34.4,22.2c0.4,14.3,1.1,28.3,2.1,41.9C167.5,337.6,140.7,348.4,117,355.8z
	 M274.4,418.2c-4.5,20.7-10,37.5-15.8,48.6c-2.9,5.7-5.5,8.7-7.2,10.3c-0.7,0.6-1.2,0.9-1.4,1.1c-0.3-0.2-0.8-0.5-1.5-1.1
	c-1.6-1.5-4.1-4.4-7.3-10.4c-5.4-10.2-10.5-25.5-14.8-44.2c4.2-3.1,7-8.1,7-13.7c0-8-5.5-14.7-12.9-16.5c-2.9-17.9-5.3-37.3-7-58
	c12.2-5.9,24.7-12.3,37.3-19.1c12,6.5,24,12.6,35.7,18.3C283.8,364.9,279.8,393.7,274.4,418.2z M385.1,356l-80.9-37.2
	c0.5-7.3,0.9-14.7,1.2-22.2l110,65.7L385.1,356z M310.7,280.4c10.8-6.7,21.2-13.5,31.3-20.3c26,18,48.9,36,67.3,52.8
	c15.5,14.3,27.4,27.5,34.2,38.1c2.9,4.6,4.7,8.5,5.4,11.6c0,0.1,0.1,0.2,0.1,0.3L310.7,280.4z"/>
</svg>
