<?xml version="1.0" encoding="utf-8"?>
<!-- Generator: Adobe Illustrator 26.0.2, SVG Export Plug-In . SVG Version: 6.00 Build 0)  -->
<svg version="1.1" id="flow" xmlns="http://www.w3.org/2000/svg" xmlns:xlink="http://www.w3.org/1999/xlink" x="0px" y="0px"
	 viewBox="0 0 500 500" style="enable-background:new 0 0 500 500;" xml:space="preserve">
<style type="text/css">
	.st0{fill:#4D5B6E;}
</style>
<path class="st0" d="M250.5,2C113.3,2,2,113.3,2,250.5S113.3,499,250.5,499S499,387.7,499,250.5S387.7,2,250.5,2z M289.4,308.2
	c0,53.3-43.2,96.5-96.5,96.5s-96.5-43.2-96.5-96.5s43.2-96.5,96.5-96.5h26.3v70.1h-26.3c-14.5,0-26.3,11.8-26.3,26.3
	s11.8,26.3,26.3,26.3s26.3-11.8,26.3-26.3h0.1v-26.2h70.1V308.2z M359.6,281.8h-70.2v-70.2h70.2L359.6,281.8L359.6,281.8z
	 M394.6,176.5h-78.9c-14.5,0-26.3,11.8-26.4,26.3v8.8h-70.1v-8.8c0.1-53.3,43.2-96.4,96.5-96.5h78.9V176.5z"/>
<polygon class="st0" points="219.2,281.8 289.4,281.8 289.4,281.8 289.4,211.6 289.4,211.6 219.2,211.6 "/>
</svg>
