<?xml version="1.0" encoding="utf-8"?>
<!-- Generator: Adobe Illustrator 26.0.2, SVG Export Plug-In . SVG Version: 6.00 Build 0)  -->
<svg version="1.1" id="fuse" xmlns="http://www.w3.org/2000/svg" xmlns:xlink="http://www.w3.org/1999/xlink" x="0px" y="0px"
	 viewBox="0 0 500 500" style="enable-background:new 0 0 500 500;" xml:space="preserve">
<style type="text/css">
	.st0{filter:url(#Adobe_OpacityMaskFilter);}
	.st1{fill-rule:evenodd;clip-rule:evenodd;fill:#FFFFFF;}
	.st2{mask:url(#mask-2_00000149383867403658457000000016695001198333524398_);fill-rule:evenodd;clip-rule:evenodd;fill:#4D5B6E;}
	.st3{fill-rule:evenodd;clip-rule:evenodd;fill:#4D5B6E;}
</style>
<defs>
	<filter id="Adobe_OpacityMaskFilter" filterUnits="userSpaceOnUse" x="9" y="314.2" width="480.7" height="183.5">
		<feColorMatrix  type="matrix" values="1 0 0 0 0  0 1 0 0 0  0 0 1 0 0  0 0 0 1 0"/>
	</filter>
</defs>
<mask maskUnits="userSpaceOnUse" x="9" y="314.2" width="480.7" height="183.5" id="mask-2_00000149383867403658457000000016695001198333524398_">
	<g class="st0">
		<polygon id="path-1_00000057864150311001737750000012787769016071767435_" class="st1" points="9,314.2 489.7,314.2 489.7,497.7 
			9,497.7 		"/>
	</g>
</mask>
<path id="Fill-1" class="st2" d="M248.9,407.6c-16.9,0-32.7-3.6-45.5-10.3L65,325l-41.5,24.9c-19.7,11.8-19.4,30,0.8,40.5
	l191.4,100.1c9.3,4.9,21.2,7.2,33.2,7.2c14.1,0,28.3-3.3,38.9-9.6l187.3-112.6c19.7-11.8,19.4-30-0.8-40.5l-39.8-20.8l-133.1,80
	C287.1,402.9,268.4,407.6,248.9,407.6"/>
<path id="Fill-4" class="st3" d="M475.6,215.2l-33.2-17.6l-77.4,47.2l-13.3,8.1l-13.3,8.1l-36.2,22.1c-14.4,8.8-33.2,13.7-52.8,13.7
	c-17,0-32.8-3.6-45.6-10.4l-41.5-22l-13.7-7.3l-13.7-7.3l-76.4-40.6l-34.9,21.3c-19.8,12-19.4,30.5,0.8,41.2l39.9,21.2l13.7,7.3
	l13.7,7.3l124.5,66.1c9.3,4.9,21.2,7.4,33.3,7.4c14.1,0,28.4-3.3,39-9.8l119.7-73l13.3-8.1l13.3-8.1l41.6-25.3
	C496.2,244.4,495.8,226,475.6,215.2"/>
<path id="Fill-6" class="st3" d="M475.6,107.3L283.8,7.2C274.5,2.4,262.5,0,250.5,0c-14.1,0-28.4,3.3-39,9.6L23.6,122.2
	c-19.8,11.8-19.4,30,0.8,40.5L57.6,180l13.7,7.2l13.7,7.2l76.4,39.9l13.7,7.2l13.7,7.2l27.3,14.2c9.3,4.9,21.2,7.2,33.3,7.2
	c14.1,0,28.4-3.3,39-9.6l22.5-13.5l13.3-8l13.3-8l77.4-46.3l13.3-8l13.3-8l34.9-20.9C496.2,135.9,495.8,117.8,475.6,107.3"/>
</svg>
