<?xml version="1.0" encoding="utf-8"?>
<!-- Generator: Adobe Illustrator 26.0.2, SVG Export Plug-In . SVG Version: 6.00 Build 0)  -->
<svg version="1.1" id="Layer_1" xmlns="http://www.w3.org/2000/svg" xmlns:xlink="http://www.w3.org/1999/xlink" x="0px" y="0px"
	 viewBox="0 0 500 500" style="enable-background:new 0 0 500 500;" xml:space="preserve">
<style type="text/css">
	.st0{fill:#4D5B6E;}
</style>
<path class="st0" d="M92.1,339.7c0.5-41.1,11.5-74.3,34.5-103.2c6.5-8.2,14.6-15.1,22-22.6c6.1-6.2,12.6-12,18.4-18.5
	c17.5-19.5,33.1-40.4,45.9-63.3c6.2-11.1,10.1-23.1,13.6-35.2c4-13.7,6.2-27.9,7.6-42.1c1.1-10.8,1-21.8,1.3-32.7
	c0.1-2.7-0.5-5.5-0.9-8.2c-0.3-2.2,0.2-3.9,2.2-5.2c2.2-1.5,3.5-0.1,4.8,1.2c4.7,4.4,9.7,8.6,14.1,13.3C273,42,287.4,63,298.1,86.5
	c9.1,20.1,15.6,41,18.4,62.9c0.9,6.7,1.9,13.5,2.1,20.3c0.6,15.5-4,29.8-11.5,43.1c-11.7,20.5-27.4,37.8-45,53.5
	c-6.8,6-13.1,12.5-19.2,19.2c-12,13.3-23.3,27.1-33.4,41.9c-15.5,22.8-28.6,46.9-38.8,72.6c-6.6,16.7-12.1,33.7-16.3,51.1
	c-1.3,5.5-4.3,6.4-8.7,2.7c-9.5-8-17.3-17.5-24.6-27.6c-13.7-19.1-22.4-40.3-26.5-63.3C93,353.8,92.6,344.6,92.1,339.7z
	 M408.7,307.3c-1.2-16.4-4.8-32.3-9.5-48c-4.4-14.8-10.4-29-17.7-42.7c-1.1-2.2-2.6-4.8-5.2-4.1c-1.6,0.5-3,3-3.8,4.8
	c-2.2,5.2-4,10.6-6.2,15.8c-6.5,16.1-14.5,31.4-24.1,45.9c-16,23.9-35.5,44.8-55.6,65.1c-11.3,11.4-22.4,22.9-32.4,35.5
	c-15.5,19.6-26.1,41.6-31.2,66.2c-1.2,5.9-3,11.6-6.5,16.9c-4.1,6.2-9.5,10.7-16,14.2c-2.1,1.1-4,2.3-3.5,4.9c0.4,2.6,2.5,3.9,5,4.4
	c2.2,0.4,4.2,1.2,6.4,1.6c8.4,1.7,16.8,3.9,25.4,4.9c13,1.6,26.1,1,39.2-0.7c17-2.2,33-7.2,48.2-14.7c17.7-8.7,33.2-20.4,46.6-35
	c12.6-13.7,22.5-29.1,29.7-46.3c9-21.5,12.6-44.1,12.7-67.4C409.7,321.7,409.2,314.5,408.7,307.3z"/>
</svg>
