<?xml version="1.0" encoding="utf-8"?>
<!-- Generator: Adobe Illustrator 26.5.0, SVG Export Plug-In . SVG Version: 6.00 Build 0)  -->
<svg version="1.1" id="juno" xmlns="http://www.w3.org/2000/svg" xmlns:xlink="http://www.w3.org/1999/xlink" x="0px" y="0px"
	 viewBox="0 0 500 500" style="enable-background:new 0 0 500 500;" xml:space="preserve">
<style type="text/css">
	.st0{fill:#4D5B6E;}
</style>
<path class="st0" d="M249.7,4.2C114.2,4.2,4.4,114.1,4.4,249.6S114.2,494.9,249.7,495c135.5,0,245.4-109.9,245.4-245.4
	S385.3,4.2,249.7,4.2z M338.8,206.6c-13,0-36.2,0-61.9,0c17.1,18.2,32.4,34.6,41.2,44.1c4.3,4.6,4.3,12.3,0,17
	c-4.3,4.6-11.5,4.6-15.9,0c-8.8-9.4-24.1-25.8-41.1-44c0,40,0,82.5,0,115.8c8.3,0,16.1,0,22,0c6.2,0,11.2,5.5,11.2,12.1
	s-5.1,11.9-11.2,11.9c-5.9,0-13.7,0-22,0c0,10.1,0,18.6,0,24.8c0,6.7-5.1,12.1-11.2,12.1s-11.2-5.5-11.2-12.1c0-6.3,0-14.7,0-24.8
	c-8.6,0-16.6,0-22.7,0c-6.2,0-11.2-5.5-11.2-12.1c0-6.6,5.1-11.9,11.2-11.9c6.1,0,14.1,0,22.7,0c0-33.2,0-75.7,0-115.6
	c-17,18.2-32.2,34.6-41,44.1c-4.3,4.6-11.5,4.6-15.9,0c-4.3-4.6-4.3-12.3,0-17c8.8-9.5,24.1-26.1,41.2-44.4c-25.9,0-49.3,0-62.5,0
	c-6.2,0-11.2-5.5-11.2-12.1s5.1-11.9,11.2-11.9c13.1,0,36.3,0,62.1,0c-16.9-18.1-32.1-34.4-41-43.8c-4.3-4.6-4.3-12.3,0-17
	c4.3-4.6,11.5-4.6,15.9,0c8.8,9.5,24.1,25.8,41.1,44c0-23.5,0-43,0-54.7c0-6.7,5.1-12.1,11.2-12.1s11.2,5.5,11.2,12.1
	c0,11.7,0,31.1,0,54.5c16.9-18.2,32.1-34.5,41-43.9c4.3-4.6,11.5-4.6,15.9,0c4.3,4.6,4.3,12.3,0,17c-8.8,9.4-24,25.7-40.9,43.9
	c25.6,0,48.6,0,61.6,0c6.2,0,11.2,5.5,11.2,12.1S344.9,206.6,338.8,206.6z"/>
</svg>
