<?xml version="1.0" encoding="utf-8"?>
<!-- Generator: Adobe Illustrator 26.0.2, SVG Export Plug-In . SVG Version: 6.00 Build 0)  -->
<svg version="1.1" id="Layer_1" xmlns="http://www.w3.org/2000/svg" xmlns:xlink="http://www.w3.org/1999/xlink" x="0px" y="0px"
	 viewBox="0 0 500 500" style="enable-background:new 0 0 500 500;" xml:space="preserve">
<style type="text/css">
	.st0{fill:#4D5B6E;}
</style>
<path id="XMLID_4_" class="st0" d="M10.3,264c0-8.7,0-17.4,0-26c0.2-1,0.5-1.9,0.6-2.9c3.7-51.2,21.2-97.1,54-136.6
	c40.7-49.2,93.1-77.8,156.4-86.3c5.4-0.7,10.8-1.3,16.2-1.9c8.7,0,17.4,0,26,0c1,0.2,1.9,0.5,2.9,0.5c18.4,1.2,36.4,4.5,54,9.8
	c93.1,28.1,160.3,110,169.6,206.7c4.3,44.8-3.3,87.6-22.9,128.1c-54.6,112.4-184.8,164-301.8,119.9C82.3,444,22.7,368.1,12.1,280.2
	C11.5,274.8,10.9,269.4,10.3,264z M323.8,254.9c16.5-4.2,26.9-14.6,31.3-31.2c5.7-21.5-0.1-38.4-18-51.5
	c-9.4-6.9-19.9-11.5-30.8-15.4c-2.1-0.7-2.5-1.6-2-3.6c1.9-7.3,3.7-14.5,5.5-21.8c1.5-6.2,3.1-12.4,4.7-18.9
	c-8.9-2.2-17.4-4.3-26.2-6.5c-3.5,14.1-7,28-10.5,42.1c-7.2-1.7-14.1-3.4-21.2-5c3.6-14.3,7-28.2,10.5-42.4
	c-8.9-2.2-17.4-4.3-26-6.5c-0.4,1.2-0.7,2-0.9,2.8c-3.1,12.5-6.3,25.1-9.3,37.6c-0.6,2.4-1.3,2.8-3.6,2.2
	c-9.1-2.4-18.2-4.6-27.3-6.8c-7.6-1.9-15.2-3.7-23-5.6c-2.4,9.4-4.6,18.6-7,27.9c2.3,0.6,4.5,1,6.6,1.6c5.7,1.6,11.6,2.8,17.1,5
	c6.2,2.5,8.8,8.9,7.2,15.4c-4.3,17.3-8.5,34.5-12.8,51.8c-5.3,21.3-10.7,42.6-15.9,63.9c-1.2,4.8-6.4,9.2-12,7.6
	c-6.4-1.9-13-3.1-19.7-4.7c-4.3,9.9-8.5,19.7-12.9,29.8c17.8,4.5,35.4,9,53.1,13.4c-3.7,14.8-7.3,29.2-10.9,43.9
	c8.9,2.2,17.4,4.3,26,6.5c0.4-1.5,0.7-2.5,1-3.6c3.1-12.4,6.3-24.8,9.3-37.2c0.4-1.5,0.8-2.5,2.6-2c6.3,1.7,12.5,3.3,19.2,5.1
	c-3.6,14.4-7.1,28.7-10.7,43.1c9,2.2,17.5,4.3,26,6.5c0.4-1.1,0.7-1.9,0.9-2.8c3.1-12.6,6.3-25.3,9.4-37.9c0.6-2.3,1.4-3.1,3.8-2.5
	c2.6,0.6,5.2,0.9,7.8,1.3c13.6,2.2,27.1,3,40.7,0.5c12.3-2.3,22.8-7.8,30.6-17.7c8.5-10.7,12.8-23.1,14.7-36.5
	c1.9-13.7-1.6-25.8-11.6-35.5C334.6,262.6,329,258.9,323.8,254.9z M229.4,254.1c-4.7,18.5-9.3,37.1-14,55.6
	c-0.5,1.9,0.3,2.2,1.9,2.6c10.6,2.3,21,5.1,31.7,7c9.5,1.6,19.2,1.9,28.8-0.4c18.9-4.4,24.3-25.4,15-38.1c-4.4-6-10.3-10-16.9-13.2
	c-14.6-7.2-30.4-10.4-46-14C229.7,253.7,229.5,253.9,229.4,254.1z M249.4,230.4c11.7,2.8,23.4,4.9,35.5,3
	c17.5-2.8,22.7-18.2,19.8-29.5c-2.1-7.9-7.9-12.9-14.7-16.7c-12-6.8-25.4-9.4-38.6-12.6c-2-0.5-2.4,0.8-2.7,2.3
	c-1.6,6.8-3.4,13.5-5,20.2c-2.4,9.8-4.9,19.7-7.4,29.8C240.9,228.2,245.2,229.4,249.4,230.4z"/>
</svg>
