<?xml version="1.0" encoding="utf-8"?>
<!-- Generator: Adobe Illustrator 26.0.2, SVG Export Plug-In . SVG Version: 6.00 Build 0)  -->
<svg version="1.1" id="moonriver" xmlns="http://www.w3.org/2000/svg" xmlns:xlink="http://www.w3.org/1999/xlink" x="0px" y="0px"
	 viewBox="0 0 500 500" style="enable-background:new 0 0 500 500;" xml:space="preserve">
<style type="text/css">
	.st0{fill:#4D5B6E;}
</style>
<path class="st0" d="M86.3,383.5L86.3,383.5c-6.4,0-11.6-5.2-11.6-11.6v-79.2c0-6.4,5.2-11.6,11.6-11.6h0c6.4,0,11.6,5.2,11.6,11.6
	v79.2C97.9,378.3,92.7,383.5,86.3,383.5z"/>
<path class="st0" d="M131.5,390.9L131.5,390.9c-6.4,0-11.6-5.2-11.6-11.6V268.1c0-6.4,5.2-11.6,11.6-11.6h0
	c6.4,0,11.6,5.2,11.6,11.6v111.1C143.1,385.7,137.9,390.9,131.5,390.9z"/>
<path class="st0" d="M176.8,499.3L176.8,499.3c-6.4,0-11.6-5.2-11.6-11.6V268.1c0-6.4,5.2-11.6,11.6-11.6h0
	c6.4,0,11.6,5.2,11.6,11.6v219.5C188.4,494.1,183.2,499.3,176.8,499.3z"/>
<path class="st0" d="M223.3,375.4L223.3,375.4c-6.4,0-11.6-5.2-11.6-11.6v-78.7c0-6.4,5.2-11.6,11.6-11.6h0
	c6.4,0,11.6,5.2,11.6,11.6v78.7C234.9,370.2,229.7,375.4,223.3,375.4z"/>
<path class="st0" d="M268.5,344.6L268.5,344.6c-6.4,0-11.6-5.2-11.6-11.6v-20.6c0-6.4,5.2-11.6,11.6-11.6h0
	c6.4,0,11.6,5.2,11.6,11.6v20.6C280.2,339.4,275,344.6,268.5,344.6z"/>
<path class="st0" d="M314.4,453.6L314.4,453.6c-6.4,0-11.6-5.2-11.6-11.6V330c0-6.4,5.2-11.6,11.6-11.6h0c6.4,0,11.6,5.2,11.6,11.6
	v112C326.1,448.4,320.8,453.6,314.4,453.6z"/>
<path class="st0" d="M359.7,440.2L359.7,440.2c-6.4,0-11.6-5.2-11.6-11.6v-93.3c0-6.4,5.2-11.6,11.6-11.6h0
	c6.4,0,11.6,5.2,11.6,11.6v93.3C371.3,435,366.1,440.2,359.7,440.2z"/>
<path class="st0" d="M406.2,375.4L406.2,375.4c-6.4,0-11.6-5.2-11.6-11.6v-40.2c0-6.4,5.2-11.6,11.6-11.6h0
	c6.4,0,11.6,5.2,11.6,11.6v40.2C417.8,370.2,412.6,375.4,406.2,375.4z"/>
<path class="st0" d="M352.5,300.9c-44.9,0-71.4-18.3-97.1-36c-25-17.2-48.5-33.5-90.2-33.5c-58.4,0-91.7,35.3-92,35.6
	c-4.3,4.7-11.7,5-16.4,0.7c-4.7-4.3-5.1-11.6-0.8-16.3c1.6-1.8,40.1-43.2,109.1-43.2c48.9,0,77.9,20,103.4,37.6
	c23.8,16.4,46.2,31.9,83.9,31.9c44,0,74.8-27.9,75.1-28.1c4.7-4.3,12.1-4,16.4,0.7c4.3,4.7,4,12.1-0.7,16.4
	C441.7,268,405.4,300.9,352.5,300.9z"/>
<path class="st0" d="M165.1,183.7c91.8,0,91.8,66.6,186.1,66.6c39.3,0,63.2-14.5,77.4-30c2-10.9,3-22.1,3-33.5
	C431.6,83.6,348.1,0,245,0C141.9,0,58.3,83.6,58.3,186.7c0,11.4,1,22.5,3,33.3C79.4,205,114.1,183.7,165.1,183.7z"/>
</svg>
