<?xml version="1.0" encoding="utf-8"?>
<!-- Generator: Adobe Illustrator 26.0.2, SVG Export Plug-In . SVG Version: 6.00 Build 0)  -->
<svg version="1.1" id="OKB" xmlns="http://www.w3.org/2000/svg" xmlns:xlink="http://www.w3.org/1999/xlink" x="0px" y="0px"
	 viewBox="0 0 500 500" style="enable-background:new 0 0 500 500;" xml:space="preserve">
<style type="text/css">
	.st0{fill:#4D5B6E;}
</style>
<path class="st0" d="M223.1,223.1c17.7,4.3,36.2,4.3,53.8,0h0.1c-4.3,17.7-4.3,36.1,0,53.7c41,10.1,72.9,42.1,83,83
	c60.7,14.8,122-22.4,136.8-83.1s-22.4-122-83.1-136.8c-8.8-2-17.8-3.1-26.8-3.1c-9.1,0-18.1,1.1-26.9,3.2 M359.9,140.1
	c14.8-60.7-22.3-122-83.1-136.8c-60.7-14.8-122,22.3-136.8,83.1c-4.3,17.7-4.3,36,0,53.7C79.3,125.4,18.1,162.4,3.3,223.2
	s22.3,122,83.1,136.8c17.7,4.3,36,4.3,53.7,0c-14.7,60.7,22.4,121.9,83.1,136.7c60.7,14.8,122-22.3,136.8-83.1
	c4.3-17.7,4.3-36.1,0-53.8h-0.1c-10-40.8-42-72.8-83-82.9c-17.7-4.3-36.2-4.3-53.8,0c4.3-17.7,4.3-36.2,0-53.8
	c-41-10.1-72.8-41.9-83-82.9l0,0c10.1,40.8,42,72.8,83,82.9 M223.1,276.9L223.1,276.9"/>
</svg>
