<?xml version="1.0" encoding="utf-8"?>
<!-- Generator: Adobe Illustrator 26.0.2, SVG Export Plug-In . SVG Version: 6.00 Build 0)  -->
<svg version="1.1" id="Layer_1" xmlns="http://www.w3.org/2000/svg" xmlns:xlink="http://www.w3.org/1999/xlink" x="0px" y="0px"
	 viewBox="0 0 500 500" style="enable-background:new 0 0 500 500;" xml:space="preserve">
<style type="text/css">
	.st0{fill:#4D5B6E;}
</style>
<path id="XMLID_4_" class="st0" d="M11.1,23.9c131.1,131,261.6,261.2,392.5,392c-35.6,35.4-78.7,57.7-128.8,64
	C156.7,494.9,56.6,431.5,20,318.1c-6.5-20.2-8.9-42.5-9.2-63.8c-1-75-0.4-150.1-0.3-225.1C10.5,27.6,10.9,25.9,11.1,23.9z
	 M492.1,471.6c0-75,0.3-150.1-0.1-225.1c-0.3-62.2-23.1-115.9-67.6-158.7c-72.2-69.4-157-83.9-250.2-50.5
	c-29,10.4-54.3,27.8-75.6,50.2c131,131,261.2,261.1,392.8,392.6C491.7,476.3,492.1,473.9,492.1,471.6z"/>
</svg>
