<?xml version="1.0" encoding="utf-8"?>
<!-- Generator: Adobe Illustrator 26.0.2, SVG Export Plug-In . SVG Version: 6.00 Build 0)  -->
<svg version="1.1" id="Layer_1" xmlns="http://www.w3.org/2000/svg" xmlns:xlink="http://www.w3.org/1999/xlink" x="0px" y="0px"
	 viewBox="0 0 500 500" style="enable-background:new 0 0 500 500;" xml:space="preserve">
<style type="text/css">
	.st0{fill:#4D5B6E;}
</style>
<path class="st0" d="M223.3,243.7c-22.3-1.7-44.5-3.5-66.8-4.9c-29.1-1.8-58.3-3.1-87.4-5c-12.8-0.9-25.7-2.2-38.3-4.4
	c-28.2-5.1-36-44-18.7-62.8c15.2-16.6,37.4-17.1,55.2-4C85.6,176,104.4,188.8,123,202c6.4,4.6,13,6.1,20.1,1.7c9.9-6,11-19.4,2-26.9
	c-2.6-2.1-5.8-3.6-8.8-5.1c-31.2-15.7-62.4-31.4-93.7-47C16.3,111.8,1.8,91.6,3,61.5c0.2-4.9,0.6-10-0.1-14.8
	C0.2,26.7,26.1,2,46.5,3c19.8,0.9,33.4,8.6,44.3,24.5c13.6,19.6,28.4,38.4,42.5,57.6c16.2,22,32.2,44.1,48.4,66.1
	c12.8,17.4,25.7,34.8,38.6,52.1c1.1,1.5,2.2,3.3,3.7,4.3c1.6,1.1,3.6,1.4,5.5,2.1c-0.2-1.7,0.2-3.9-0.6-5.2
	c-6.9-10.5-13.8-20.9-21-31.1c-18.4-26.5-37-52.8-55.5-79.3c-23.7-33.8-3.9-79.2,30.9-88.8c40.7-11.2,74,15.2,76.7,52.3
	c1.1,15.5-4,31.4-6.5,47.2c-2.3,14.6-5,29.1-7.4,43.7c-0.2,1.2,0.7,2.6,1.1,3.8c0.9-1.1,2.2-2,2.6-3.2c4.4-14.5,8.7-29.1,12.8-43.7
	c4.8-17.2,8.8-34.5,14-51.5c7.6-24.6,24.8-40.3,49-48.4c4.6-1.5,9.7-1.9,14.6-2c33-0.2,66.1,0.7,99.1-0.4
	c24.6-0.8,56.2,27.3,57.3,56.2c1,27.6-11.9,45.8-32.4,61.3C427,148.7,390,177,353,205.4c-18.6,14.3-37.1,28.8-55.3,43.6
	c-3,2.5-10,5.4-6.3,10c3.9,4.8,7.7-1.5,11-4.1c24.1-19.1,48-38.2,72.1-57.3c15.2-12,30.2-24.2,45.9-35.4c15.1-10.8,32-11.3,48.5-3.4
	c16.2,7.8,25.4,20.8,27.2,39.1c1.7,16.8-3.6,30.4-16,41.8c-7,6.4-14.7,10.9-24,12c-16.2,1.9-32.4,3.5-48.6,4.9
	c-20.4,1.8-40.8,3.2-61.2,4.8c-0.8,0.1-1.7-0.1-2.2,0.3c-1.5,1-2.8,2.2-4.1,3.3c1.4,1,2.8,2.7,4.3,2.7c6.8,0.2,13.7,0.2,20.5-0.1
	c13.6-0.6,27.2-1.6,40.9-2.1c9.4-0.3,18.9-1.1,28.2,0.1c30.9,3.9,63.3,34.9,62.5,70.6c-0.9,39.1-0.8,78.3,0,117.4
	c0.5,22.8-17.8,39.8-31.8,42c-22.1,3.5-39.7-1.1-51.5-25.5c-12.4-25.6-23.9-51.7-36.2-77.3c-5.3-11.1-16.9-15.4-27.6-11.4
	c-15.6,5.8-20.1,24.2-8.9,37.3c3.7,4.3,7.9,8.2,11.9,12.3c19,19.3,13.7,50.2-10,62.6c-1,0.5-2,1.4-3,1.5c-17.7,1.3-35.6,5-52.5-3.4
	c-13.1-6.5-21.1-17.6-23.1-31.9c-4.4-31.1-7.9-62.4-11.9-93.6c-2.9-22.5-6-45.1-9.1-67.6c-0.2-1.2-1.3-2.3-2.1-3.5
	c-0.5,1.3-1.5,2.6-1.4,3.8c1.2,9.4,2.8,18.7,4,28.1c3.7,28.6,7.5,57.1,10.8,85.7c2.4,20.1-3.3,38.2-15.2,54.6
	c-6.4,8.8-14.3,15.4-23.7,20.8c-9.8,5.6-20.1,8.4-31.5,8.3c-39.5-0.2-79-0.3-118.5-0.2c-18.2,0.1-32.4-8.9-43.9-21
	C1.2,454.3-1.6,428.8,7.3,402c5.1-15.4,15.6-27,30.1-34c19.8-9.5,40-18.2,60.2-27c33.1-14.3,66.2-28.4,99.4-42.6
	c1-0.4,2.1-0.9,3-1.6c3.4-2.2,6.2-5,4.2-9.3c-2-4.5-6.2-4.2-9.8-2.7c-11.2,4.8-22.2,9.9-33.2,15c-27.5,12.9-54.8,26.1-82.4,38.6
	c-28.9,13.1-61.4,1.4-72.4-28.3c-12.7-34.3,9.6-70.9,46.4-71.6c23.8-0.4,47.6,2.2,71.5,3.5c0.4,0,0.8,0.1,1.1,0.1
	c32.6,1,65.1,2,97.7,3C223,244.9,223.1,244.3,223.3,243.7z"/>
</svg>
