<?xml version="1.0" encoding="utf-8"?>
<!-- Generator: Adobe Illustrator 26.0.2, SVG Export Plug-In . SVG Version: 6.00 Build 0)  -->
<svg version="1.1" id="Layer_1" xmlns="http://www.w3.org/2000/svg" xmlns:xlink="http://www.w3.org/1999/xlink" x="0px" y="0px"
	 viewBox="0 0 500 500" style="enable-background:new 0 0 500 500;" xml:space="preserve">
<style type="text/css">
	.st0{fill:#4D5B6E;}
</style>
<path class="st0" d="M216.1,190h43c14.5,0,26.3-11.8,26.3-26.3v-61.7h-69.3V190z"/>
<path class="st0" d="M392.5,6.2H107.5C90,6.2,75.9,20.3,75.9,37.7v309.6c0,9.5,4.3,18.6,11.8,24.6l142.8,114.9
	c11.4,9.2,27.7,9.3,39.3,0.2l142.3-112.1c7.6-6,12-15.1,12-24.8V37.7C424.1,20.3,410,6.2,392.5,6.2z M367.3,188.5
	c0,16.1-13.1,29.2-29.2,29.2c16.1,0,29.2,13.1,29.2,29.2v59.1c0,11-4.8,21.5-13.1,28.8l-68.9,60.1V263.4c0-14.5-11.8-26.3-26.3-26.3
	h-43v157.2l-69.3-59.6c-8.4-7.3-13.3-17.8-13.3-29V92c0-16.1,13.1-29.2,29.2-29.2h175.5c16.1,0,29.2,13.1,29.2,29.2V188.5z"/>
</svg>
