<?xml version="1.0" encoding="utf-8"?>
<!-- Generator: Adobe Illustrator 26.0.2, SVG Export Plug-In . SVG Version: 6.00 Build 0)  -->
<svg version="1.1" id="telos" xmlns="http://www.w3.org/2000/svg" xmlns:xlink="http://www.w3.org/1999/xlink" x="0px" y="0px"
	 viewBox="0 0 500 500" style="enable-background:new 0 0 500 500;" xml:space="preserve">
<style type="text/css">
	.st0{fill:#4D5B6E;}
</style>
<path class="st0" d="M316.9,42l61.8,4.3l-19.9,51.9c-4.2,11.1-3.2,23.5,2.8,33.8l76.3,130.4l-12.9,66.9l-66,12.9
	c0,0-14.8,2.2-19.4,18c-4,13.6-28,30.2-51,44.1C238.7,434.5,114.4,458,114.4,458S75.8,338.8,75,309.6c-0.9-29.2-4.3-78.9,6.9-91.8
	c11.2-12.9,16.3-22.3,9.4-37.7C84.4,164.7,69,124.3,69,124.3l49.7-43.7L280,81.5c0,0,17.2-3.4,24-16.3C310.9,52.3,316.9,42,316.9,42
	 M316.9,0c-14.9,0-28.7,7.9-36.3,20.8c-0.2,0.4-4.7,8.1-10.4,18.6L119,38.6c-0.1,0-0.1,0-0.2,0c-10.2,0-20.1,3.7-27.7,10.5
	L41.3,92.8c-13.2,11.6-17.8,30.2-11.5,46.6c0.6,1.5,12.5,32.6,20.3,51.1c-19.1,22.2-19.3,57.7-17.4,109.4c0.1,3.9,0.3,7.7,0.4,11
	c0.3,11,3.1,31.8,21.7,95.7c9.8,33.7,19.4,63.2,19.8,64.4c5.7,17.6,22,29.1,39.9,29.1c2.6,0,5.2-0.2,7.8-0.7
	c1.3-0.2,32.9-6.2,71.1-16.1c53.5-13.8,92.8-28.3,117-42.9c31.6-19.2,55.2-36.9,65.8-58.6l56.8-11.1c16.8-3.3,30-16.5,33.2-33.3
	l12.9-66.9c1.9-10,0.1-20.3-5-29.1L398.5,112l19.4-50.7c4.8-12.4,3.3-26.4-3.8-37.6S394.8,5.3,381.5,4.4l-61.8-4.3
	C318.8,0,317.8,0,316.9,0L316.9,0z"/>
</svg>
