<?xml version="1.0" encoding="utf-8"?>
<!-- Generator: Adobe Illustrator 26.2.1, SVG Export Plug-In . SVG Version: 6.00 Build 0)  -->
<svg version="1.1" id="a" xmlns="http://www.w3.org/2000/svg" xmlns:xlink="http://www.w3.org/1999/xlink" x="0px" y="0px"
	 viewBox="0 0 32 32" style="enable-background:new 0 0 32 32;" xml:space="preserve">
<style type="text/css">
	.st0{fill:#4D5B6E;}
</style>
<path class="st0" d="M26.2,1.8H5.8c-2.9,0-5.2,2.3-5.2,5.2v14.1c0,2.9,2.3,5.2,5.2,5.2h9.1V28h-3.7c-0.8,0-1.5,0.7-1.5,1.5
	s0.7,1.5,1.5,1.5h10.4c0.8,0,1.5-0.7,1.5-1.5S22.4,28,21.6,28h-3.7v-1.8h8.3c2.9,0,5.2-2.3,5.2-5.2V6.9C31.4,4.1,29.1,1.8,26.2,1.8z
	 M28.4,21.1c0,1.2-1,2.2-2.2,2.2H5.8c-1.2,0-2.2-1-2.2-2.2V6.9c0-1.2,1-2.2,2.2-2.2h20.5c1.2,0,2.2,1,2.2,2.2V21.1z"/>
</svg>
