<?xml version="1.0" encoding="utf-8"?>
<!-- Generator: Adobe Illustrator 26.2.1, SVG Export Plug-In . SVG Version: 6.00 Build 0)  -->
<svg version="1.1" id="a" xmlns="http://www.w3.org/2000/svg" xmlns:xlink="http://www.w3.org/1999/xlink" x="0px" y="0px"
	 viewBox="0 0 32 32" style="enable-background:new 0 0 32 32;" xml:space="preserve">
<style type="text/css">
	.st0{fill:#4D5B6E;}
</style>
<path class="st0" d="M21.7,7.5H10.3c-1.6,0-2.8,1.3-2.8,2.8v11.4c0,1.5,1.3,2.8,2.8,2.8h11.4c1.5,0,2.8-1.3,2.8-2.8V10.3
	C24.5,8.7,23.3,7.5,21.7,7.5L21.7,7.5z M21.5,21.5H10.5V10.5h11.1C21.5,10.5,21.5,21.5,21.5,21.5z"/>
<path class="st0" d="M30.4,18.5h-1.1v-5.1h1.1c0.8,0,1.5-0.7,1.5-1.5s-0.7-1.5-1.5-1.5h-1.1V7.9c0-2.9-2.4-5.2-5.2-5.2h-2.7v-1
	c0-0.8-0.7-1.5-1.5-1.5s-1.5,0.7-1.5,1.5v1h-5.1v-1c0-0.8-0.7-1.5-1.5-1.5s-1.5,0.7-1.5,1.5v1H7.9C5,2.7,2.7,5,2.7,7.9v2.5h-1
	c-0.8,0-1.5,0.7-1.5,1.5s0.7,1.5,1.5,1.5h1v5.1h-1c-0.8,0-1.5,0.7-1.5,1.5s0.7,1.5,1.5,1.5h1v2.5c0,2.9,2.3,5.2,5.2,5.2h2.4v1
	c0,0.8,0.7,1.5,1.5,1.5s1.5-0.7,1.5-1.5v-1h5.1v1c0,0.8,0.7,1.5,1.5,1.5s1.5-0.7,1.5-1.5v-1h2.7c2.9,0,5.2-2.4,5.2-5.2v-2.5h1.1
	c0.8,0,1.5-0.7,1.5-1.5S31.3,18.5,30.4,18.5z M26.3,24.1c0,1.2-1,2.2-2.2,2.2H7.9c-1.2,0-2.2-1-2.2-2.2V7.9c0-1.2,1-2.2,2.2-2.2
	h16.1c1.2,0,2.2,1,2.2,2.2C26.3,7.9,26.3,24.1,26.3,24.1z"/>
</svg>
