<?xml version="1.0" encoding="utf-8"?>
<!-- Generator: Adobe Illustrator 26.2.1, SVG Export Plug-In . SVG Version: 6.00 Build 0)  -->
<svg version="1.1" id="a" xmlns="http://www.w3.org/2000/svg" xmlns:xlink="http://www.w3.org/1999/xlink" x="0px" y="0px"
	 viewBox="0 0 32 32" style="enable-background:new 0 0 32 32;" xml:space="preserve">
<style type="text/css">
	.st0{fill:#4D5B6E;}
</style>
<path class="st0" d="M20.6,31.5h-9.9c-2.9,0-5.2-2.3-5.2-5.2V5.9c0-2.9,2.3-5.2,5.2-5.2h9.9c2.9,0,5.2,2.3,5.2,5.2v20.5
	C25.8,29.2,23.4,31.5,20.6,31.5z M10.6,3.7c-1.2,0-2.2,1-2.2,2.2v20.5c0,1.2,1,2.2,2.2,2.2h9.9c1.2,0,2.2-1,2.2-2.2V5.9
	c0-1.2-1-2.2-2.2-2.2C20.6,3.7,10.6,3.7,10.6,3.7z"/>
<path class="st0" d="M16.6,27.8h-2.2c-0.8,0-1.5-0.7-1.5-1.5s0.7-1.5,1.5-1.5h2.2c0.8,0,1.5,0.7,1.5,1.5S17.5,27.8,16.6,27.8z"/>
</svg>
