<?xml version="1.0" encoding="utf-8"?>
<!-- Generator: Adobe Illustrator 26.2.1, SVG Export Plug-In . SVG Version: 6.00 Build 0)  -->
<svg version="1.1" id="a" xmlns="http://www.w3.org/2000/svg" xmlns:xlink="http://www.w3.org/1999/xlink" x="0px" y="0px"
	 viewBox="0 0 32 32" style="enable-background:new 0 0 32 32;" xml:space="preserve">
<style type="text/css">
	.st0{fill:#4D5B6E;}
</style>
<path class="st0" d="M26.3,28.6H5.8c-2.9,0-5.2-2.3-5.2-5.2V9.3c0-2.9,2.3-5.2,5.2-5.2h20.5c2.9,0,5.2,2.3,5.2,5.2v14.1
	C31.5,26.3,29.1,28.7,26.3,28.6z M5.8,7.1c-1.2,0-2.2,1-2.2,2.2v14.1c0,1.2,1,2.2,2.2,2.2h20.5c1.2,0,2.2-1,2.2-2.2V9.3
	c0-1.2-1-2.2-2.2-2.2H5.8z"/>
<path class="st0" d="M6.6,12c-0.4,0-0.8-0.2-1.1-0.4c-0.3-0.3-0.4-0.7-0.4-1.1s0.2-0.8,0.4-1.1c0.6-0.6,1.6-0.6,2.1,0
	c0.1,0.1,0.1,0.1,0.2,0.2c0.1,0.1,0.1,0.2,0.1,0.3S8,10.1,8,10.2c0,0.1,0,0.2,0,0.3c0,0.4-0.2,0.8-0.4,1.1S7,12,6.6,12z"/>
<path class="st0" d="M25.4,12H11.1c-0.8,0-1.5-0.7-1.5-1.5S10.3,9,11.1,9h14.2c0.8,0,1.5,0.7,1.5,1.5S26.2,12,25.4,12L25.4,12z"/>
</svg>
