<?xml version="1.0" encoding="utf-8"?>
<!-- Generator: Adobe Illustrator 26.5.0, SVG Export Plug-In . SVG Version: 6.00 Build 0)  -->
<svg version="1.1" id="Layer_1" xmlns="http://www.w3.org/2000/svg" xmlns:xlink="http://www.w3.org/1999/xlink" x="0px" y="0px"
	 viewBox="0 0 384 512" style="enable-background:new 0 0 384 512;" xml:space="preserve">
<style type="text/css">
	.st0{fill:#4D5B6E;}
</style>
<path class="st0" d="M24,80h336c13.2,0,24-10.8,24-24s-10.7-24-24-24H24C10.8,32,0,42.8,0,56S10.8,80,24,80z M81.5,304.2l86.5-92.1
	v243.8c0,13.3,10.8,24.1,24,24.1s24-10.8,24-24V212.1l86.5,92.1c4.8,5,11.1,7.5,17.5,7.5c5.9,0,11.8-2.2,16.4-6.5
	c9.7-9.1,10.1-24.3,1-34L209.5,135c-9.1-9.7-25.9-9.7-34.9,0l-128,136.2c-9.1,9.7-8.6,24.9,1,34C57.2,314.3,72.4,313.9,81.5,304.2z"
	/>
</svg>
