<svg width="390" height="300" viewBox="0 0 390 300" fill="none" xmlns="http://www.w3.org/2000/svg">
<rect x="0.5" y="0.5" width="389" height="299" rx="11.5" fill="#202020" stroke="#292929"/>
<rect x="20" y="19" width="72" height="72" rx="8" fill="#292929"/>
<rect x="114" y="19" width="137" height="23" rx="4" fill="#292929"/>
<rect x="114" y="65" width="74" height="16" rx="4" fill="#292929"/>
<rect x="15" y="202" width="62" height="16" rx="4" fill="#292929"/>
<rect x="15" y="263" width="77" height="23" rx="4" fill="#292929"/>
<rect x="98" y="263" width="60" height="23" rx="4" fill="#292929"/>
<rect x="164" y="263" width="83" height="23" rx="4" fill="#292929"/>
<rect x="253" y="263" width="42" height="23" rx="4" fill="#292929"/>
<rect x="86" y="202" width="68" height="16" rx="4" fill="#292929"/>
<rect x="15" y="108" width="334" height="16" rx="4" fill="#292929"/>
<rect x="15" y="133" width="177" height="16" rx="4" fill="#292929"/>
<rect x="15" y="173" width="64" height="12" rx="4" fill="#292929"/>
<rect x="15" y="242" width="79" height="12" rx="4" fill="#292929"/>
</svg>
