<?xml version="1.0" encoding="UTF-8"?><svg xmlns="http://www.w3.org/2000/svg" viewBox="0 0 488.4 367.18"><defs><style>.d{fill:#a0a0a0;}</style></defs><g id="a"/><g id="b"><g id="c"><path d="M122.53,366.13H0v-122.53H122.53v122.53Zm-121.53-1H121.53v-120.53H1v120.53Z"/><polygon points="484.85 367.18 362.83 367.18 362.83 244.65 484.85 244.65 484.85 245.65 363.83 245.65 363.83 366.18 484.85 366.18 484.85 367.18"/><polygon points="122.85 123.08 0 123.08 0 .34 61.8 .34 61.8 1.34 1 1.34 1 122.08 121.85 122.08 121.85 61.58 122.85 61.58 122.85 123.08"/><path class="d" d="M98.34,305.01c-.47-.9-.95-1.86-1.45-2.88-10-20.44-14.17-23.4-21.51-23.4-5.57,0-12.52,4.3-17.58,19.73-.7,2.14-1.37,4.31-2.01,6.45l42.56,.09Z"/><rect x=".5" y="304.5" width="121.25" height="1"/><path d="M.97,342.88l-.96-.29c.02-.06,1.86-5.98,5.33-11.81,4.65-7.82,10.1-11.95,15.77-11.95,6.64,0,10.92,4.09,14.37,7.38,2.26,2.15,4.2,4.01,6.12,4.01,6.08,0,9.43-11.2,12.98-23.07,.87-2.9,1.77-5.91,2.73-8.85,2.46-7.5,8.08-20.08,18.06-20.08,7.78,0,12.04,3.42,21.96,23.68,8.29,16.95,12.5,16.93,14.47,16.92h.13c2.32,0,5.73-2.72,7.76-7.9l2.02-5.19,.93,.36-2.02,5.19c-1.96,5.03-5.54,8.54-8.69,8.54h-.13c-2.4,0-6.81,.02-15.37-17.48-10.24-20.94-14.28-23.12-21.06-23.12-9.35,0-14.73,12.15-17.11,19.39-.96,2.93-1.86,5.93-2.73,8.82-3.82,12.76-7.12,23.78-13.94,23.78-2.32,0-4.4-1.99-6.81-4.28-3.32-3.16-7.45-7.1-13.68-7.1-12.89,0-20.07,22.82-20.14,23.05Z"/><path d="M303.43,367c-33.76,0-61.23-27.47-61.23-61.23s27.47-61.23,61.23-61.23,61.23,27.47,61.23,61.23-27.47,61.23-61.23,61.23Zm0-121.47c-33.21,0-60.23,27.02-60.23,60.23s27.02,60.23,60.23,60.23,60.23-27.02,60.23-60.23-27.02-60.23-60.23-60.23Z"/><path d="M304.66,245.23c-33.83,0-61.35-27.52-61.35-61.35s27.52-61.35,61.35-61.35,61.35,27.52,61.35,61.35-27.52,61.35-61.35,61.35Zm0-121.7c-33.28,0-60.35,27.07-60.35,60.35s27.07,60.35,60.35,60.35,60.35-27.07,60.35-60.35-27.07-60.35-60.35-60.35Z"/><path d="M183.08,245.11c-33.76,0-61.23-27.47-61.23-61.23s27.47-61.23,61.23-61.23,61.23,27.47,61.23,61.23-27.47,61.23-61.23,61.23Zm0-121.47c-33.21,0-60.23,27.02-60.23,60.23s27.02,60.23,60.23,60.23,60.23-27.02,60.23-60.23-27.02-60.23-60.23-60.23Z"/><path d="M188.62,355.01c-30.71,0-55.69-24.98-55.69-55.69h1c0,30.16,24.53,54.69,54.69,54.69v1Z"/><path d="M473.23,194.91h-1c0-30.16-24.53-54.69-54.69-54.69v-1c30.71,0,55.69,24.98,55.69,55.69Z"/><path d="M427.25,238.4h-1c0-23.59,19.19-42.77,42.77-42.77v1c-23.03,0-41.77,18.74-41.77,41.77Z"/><path d="M243.19,305.91h-1c0-33.53-26.77-60.81-59.67-60.81l-60.5-.5v-1l60.5,.5c33.45,0,60.67,27.73,60.67,61.81Z"/><path d="M426.24,244.85c-33.76,0-61.23-27.47-61.23-61.23h1c0,33.21,27.02,60.23,60.23,60.23s60.23-27.02,60.23-60.23-27.02-60.23-60.23-60.23h-121.53v-1h121.53c33.76,0,61.23,27.47,61.23,61.23s-27.47,61.23-61.23,61.23Z"/><path d="M427.17,122.47c-33.76,0-61.23-27.47-61.23-61.23S393.4,0,427.17,0s61.23,27.47,61.23,61.23-27.47,61.23-61.23,61.23Zm0-121.47c-33.21,0-60.23,27.02-60.23,60.23s27.02,60.23,60.23,60.23,60.23-27.02,60.23-60.23S460.38,1,427.17,1Z"/><path d="M122.63,183.61h-16.36v-.5c0-24.63-20.04-44.67-44.67-44.67s-44.67,20.04-44.67,44.67v.5H.57v-.5c0-33.65,27.38-61.03,61.03-61.03s61.03,27.38,61.03,61.03v.5Zm-15.36-1h14.36c-.27-32.87-27.09-59.53-60.03-59.53S1.84,149.74,1.57,182.61H15.93c.27-24.95,20.65-45.17,45.67-45.17s45.4,20.22,45.67,45.17Z"/><g><rect class="d" x="343.21" y="270.29" width="20.95" height="96.2"/><path d="M364.66,367h-21.95v-97.2h21.95v97.2Zm-20.95-1h19.95v-95.2h-19.95v95.2Z"/></g><path d="M343.71,367h-21.95v-59.45h21.95v59.45Zm-20.95-1h19.95v-57.45h-19.95v57.45Z"/><path d="M322.76,367h-21.95v-28.15h21.95v28.15Zm-20.95-1h19.95v-26.15h-19.95v26.15Z"/><polygon points="294.81 308.12 293.81 308.12 293.81 289.02 274.77 289.02 274.77 288.02 294.81 288.02 294.81 308.12"/><rect x="271.07" y="297.77" width="27.34" height="1" transform="translate(-127.51 288.7) rotate(-45)"/><rect x="125.37" y="318.22" width="95.26" height="1" transform="translate(-174.7 215.68) rotate(-45)"/><path d="M320.36,239.26c-20.27,0-36.76-16.49-36.76-36.76s16.49-36.76,36.76-36.76,36.76,16.49,36.76,36.76-16.49,36.76-36.76,36.76Zm0-72.52c-19.72,0-35.76,16.04-35.76,35.76s16.04,35.76,35.76,35.76,35.76-16.04,35.76-35.76-16.04-35.76-35.76-35.76Z"/><circle cx="288.1" cy="165.63" r="36.26"/><path d="M421.88,47.91c-3.66,0-6.65-2.98-6.65-6.65s2.98-6.65,6.65-6.65,6.64,2.98,6.64,6.65-2.98,6.65-6.64,6.65Zm0-12.29c-3.11,0-5.65,2.53-5.65,5.65s2.53,5.65,5.65,5.65,5.64-2.53,5.64-5.65-2.53-5.65-5.64-5.65Z"/><path d="M459.97,46.44c-3.66,0-6.65-2.98-6.65-6.65s2.98-6.65,6.65-6.65,6.65,2.98,6.65,6.65-2.98,6.65-6.65,6.65Zm0-12.29c-3.11,0-5.65,2.53-5.65,5.65s2.53,5.65,5.65,5.65,5.65-2.53,5.65-5.65-2.53-5.65-5.65-5.65Z"/><circle cx="113.67" cy="196.76" r="7.6"/><path d="M95.57,231.93c-4.47,0-8.1-3.63-8.1-8.1s3.63-8.1,8.1-8.1,8.1,3.63,8.1,8.1-3.63,8.1-8.1,8.1Zm0-15.21c-3.92,0-7.1,3.19-7.1,7.1s3.19,7.1,7.1,7.1,7.1-3.19,7.1-7.1-3.19-7.1-7.1-7.1Z"/><circle cx="60.93" cy="235.77" r="7.6"/><path d="M27.26,231.45c-4.47,0-8.1-3.63-8.1-8.1s3.63-8.1,8.1-8.1,8.1,3.63,8.1,8.1-3.63,8.1-8.1,8.1Zm0-15.21c-3.92,0-7.1,3.19-7.1,7.1s3.19,7.1,7.1,7.1,7.1-3.19,7.1-7.1-3.19-7.1-7.1-7.1Z"/><circle cx="9.03" cy="196.76" r="7.6"/><circle cx="456.14" cy="69.9" r="4.65"/><g><circle class="d" cx="394.9" cy="78.67" r="6.15"/><path d="M394.9,85.32c-3.66,0-6.64-2.98-6.64-6.65s2.98-6.65,6.64-6.65,6.65,2.98,6.65,6.65-2.98,6.65-6.65,6.65Zm0-12.29c-3.11,0-5.64,2.53-5.64,5.65s2.53,5.65,5.64,5.65,5.65-2.53,5.65-5.65-2.53-5.65-5.65-5.65Z"/></g><path d="M421.88,94.28c-3.66,0-6.65-2.98-6.65-6.65s2.98-6.65,6.65-6.65,6.64,2.98,6.64,6.65-2.98,6.65-6.64,6.65Zm0-12.29c-3.11,0-5.65,2.53-5.65,5.65s2.53,5.65,5.65,5.65,5.64-2.53,5.64-5.65-2.53-5.65-5.64-5.65Z"/><g><circle class="d" cx="429.17" cy="64.48" r="9.33"/><path d="M429.17,74.31c-5.42,0-9.83-4.41-9.83-9.83s4.41-9.83,9.83-9.83,9.83,4.41,9.83,9.83-4.41,9.83-9.83,9.83Zm0-18.65c-4.87,0-8.83,3.96-8.83,8.83s3.96,8.83,8.83,8.83,8.83-3.96,8.83-8.83-3.96-8.83-8.83-8.83Z"/></g><path d="M183.08,123.23c-33.76,0-61.23-27.47-61.23-61.23S149.31,.76,183.08,.76V1.76c-33.21,0-60.23,27.02-60.23,60.23s27.02,60.23,60.23,60.23,60.23-27.02,60.23-60.23h1c0,33.76-27.47,61.23-61.23,61.23Z"/><g><path d="M183.08,37.57c3.21,0,6.28,.62,9.08,1.75l13.08-33.88h0c-6.87-2.69-14.34-4.17-22.17-4.17"/><path d="M192.45,39.97l-.47-.19c-2.83-1.13-5.83-1.71-8.9-1.71v-1c3.03,0,5.99,.54,8.8,1.6l12.72-32.95c-6.86-2.63-14.1-3.96-21.52-3.96V.76c7.71,0,15.23,1.42,22.35,4.21l.46,.18-13.44,34.82Z"/></g><g><path class="d" d="M224.79,17.85c-3.59-3.39-7.6-6.35-11.93-8.8h0l-17.67,31.73c1.82,1.04,3.5,2.31,4.98,3.77l24.62-26.7h0Z"/><path d="M200.19,45.27l-.37-.36c-1.46-1.44-3.11-2.68-4.88-3.69l-.43-.25,.24-.43,17.91-32.17,.44,.25c4.35,2.45,8.39,5.43,12.03,8.87l.36,.34-25.3,27.44Zm-4.33-4.67c1.54,.92,2.98,2.01,4.29,3.24l23.93-25.96c-3.36-3.12-7.07-5.86-11.03-8.14l-17.19,30.86Z"/></g><path d="M183.08,86.92c-13.75,0-24.93-11.18-24.93-24.93s10.91-24.65,24.43-24.92V1.26h1V38.07h-.5c-13.19,0-23.93,10.73-23.93,23.93s10.73,23.93,23.93,23.93,23.93-10.73,23.93-23.93v-.5h36.81v1h-35.81c-.27,13.52-11.34,24.43-24.92,24.43Z"/><path d="M114.34,61.73H7.46V8.45H114.34V61.73Zm-105.88-1H113.34V9.45H8.46V60.73Z"/><g><rect class="d" x="7.96" y="68.25" width="69.35" height="11.65"/><path d="M77.81,80.4H7.46v-12.65H77.81v12.65Zm-69.35-1H76.81v-10.65H8.46v10.65Z"/></g><path d="M53.71,93.37H7.46v-6.73H53.71v6.73Zm-45.25-1H52.71v-4.73H8.46v4.73Z"/><polygon points="382.69 349.3 363.25 342.23 363.59 341.29 382.16 348.04 398.32 312.41 424.6 327.57 447.25 294.82 468.7 312.54 484.45 262.86 485.41 263.17 469.2 314.26 447.46 296.28 424.9 328.89 398.78 313.82 382.69 349.3"/><g><circle class="d" cx="382.5" cy="347.59" r="4.25"/><path d="M382.5,352.34c-2.62,0-4.75-2.13-4.75-4.75s2.13-4.75,4.75-4.75,4.75,2.13,4.75,4.75-2.13,4.75-4.75,4.75Zm0-8.49c-2.07,0-3.75,1.68-3.75,3.75s1.68,3.75,3.75,3.75,3.75-1.68,3.75-3.75-1.68-3.75-3.75-3.75Z"/></g><circle cx="398.91" cy="313.45" r="4.25"/><g><circle class="d" cx="417.54" cy="139.72" r="4.25"/><path d="M417.54,144.47c-2.62,0-4.75-2.13-4.75-4.75s2.13-4.75,4.75-4.75,4.75,2.13,4.75,4.75-2.13,4.75-4.75,4.75Zm0-8.49c-2.07,0-3.75,1.68-3.75,3.75s1.68,3.75,3.75,3.75,3.75-1.68,3.75-3.75-1.68-3.75-3.75-3.75Z"/></g><g><circle class="d" cx="472.73" cy="196.93" r="4.25"/><path d="M472.73,201.68c-2.62,0-4.75-2.13-4.75-4.75s2.13-4.75,4.75-4.75,4.75,2.13,4.75,4.75-2.13,4.75-4.75,4.75Zm0-8.49c-2.07,0-3.75,1.68-3.75,3.75s1.68,3.75,3.75,3.75,3.75-1.68,3.75-3.75-1.68-3.75-3.75-3.75Z"/></g><g><circle class="d" cx="151.3" cy="339.34" r="4.25"/><path d="M151.3,344.09c-2.62,0-4.75-2.13-4.75-4.75s2.13-4.75,4.75-4.75,4.75,2.13,4.75,4.75-2.13,4.75-4.75,4.75Zm0-8.49c-2.07,0-3.75,1.68-3.75,3.75s1.68,3.75,3.75,3.75,3.75-1.68,3.75-3.75-1.68-3.75-3.75-3.75Z"/></g><g><circle class="d" cx="425.17" cy="327.4" r="4.25"/><path d="M425.17,332.15c-2.62,0-4.75-2.13-4.75-4.75s2.13-4.75,4.75-4.75,4.75,2.13,4.75,4.75-2.13,4.75-4.75,4.75Zm0-8.49c-2.07,0-3.75,1.68-3.75,3.75s1.68,3.75,3.75,3.75,3.75-1.68,3.75-3.75-1.68-3.75-3.75-3.75Z"/></g><g><circle class="d" cx="448.27" cy="297.06" r="4.25"/><path d="M448.27,301.8c-2.62,0-4.75-2.13-4.75-4.75s2.13-4.75,4.75-4.75,4.75,2.13,4.75,4.75-2.13,4.75-4.75,4.75Zm0-8.49c-2.07,0-3.75,1.68-3.75,3.75s1.68,3.75,3.75,3.75,3.75-1.68,3.75-3.75-1.68-3.75-3.75-3.75Z"/></g><circle cx="468.63" cy="312.8" r="4.25"/><g><path class="d" d="M24.72,183.53h9.36c0,15.18,12.35,27.52,27.52,27.52s27.52-12.35,27.52-27.52h9.36c0,20.34-16.54,36.88-36.88,36.88s-36.88-16.54-36.88-36.88Z"/><path d="M61.6,220.91c-20.61,0-37.38-16.77-37.38-37.38v-.5h10.36v.5c0,14.9,12.12,27.02,27.02,27.02s27.02-12.12,27.02-27.02v-.5h10.36v.5c0,20.61-16.77,37.38-37.38,37.38Zm-36.38-36.88c.27,19.83,16.48,35.88,36.38,35.88s36.11-16.05,36.38-35.88h-8.36c-.27,15.22-12.73,27.52-28.02,27.52s-27.75-12.3-28.02-27.52h-8.36Z"/></g><path d="M366.01,123.43h-122.7V61.5h122.7v61.94Zm-121.7-1h120.7V62.5h-120.7v59.94Z"/><path d="M366.01,62.5h-101.45v-26.44h101.45v26.44Zm-100.45-1h99.45v-24.44h-99.45v24.44Z"/><path d="M305,102.57c-22.44,0-40.7-18.26-40.7-40.7s18.26-40.7,40.7-40.7,40.7,18.26,40.7,40.7-18.26,40.7-40.7,40.7Zm0-80.41c-21.89,0-39.7,17.81-39.7,39.7s17.81,39.7,39.7,39.7,39.7-17.81,39.7-39.7-17.81-39.7-39.7-39.7Z"/><rect x="122.03" y="365.13" width="120.37" height="1"/><path d="M183.08,231.29c-26.14,0-47.41-21.27-47.41-47.41s21.27-47.41,47.41-47.41,47.41,21.27,47.41,47.41-21.27,47.41-47.41,47.41Zm0-93.82c-25.59,0-46.41,20.82-46.41,46.41s20.82,46.41,46.41,46.41,46.41-20.82,46.41-46.41-20.82-46.41-46.41-46.41Z"/><rect x="122.13" y="182.61" width="14.04" height="1"/><rect x="182.58" y="230.79" width="1" height="13.82"/><path d="M183.08,198.72v-1c7.63,0,13.85-6.21,13.85-13.85s-6.21-13.85-13.85-13.85-13.85,6.21-13.85,13.85h-1c0-8.19,6.66-14.85,14.85-14.85s14.85,6.66,14.85,14.85-6.66,14.85-14.85,14.85Z"/><path d="M264.8,61.87c0,22.2,18,40.2,40.2,40.2s40.2-18,40.2-40.2"/></g></g></svg>