<?xml version="1.0" encoding="UTF-8"?><svg xmlns="http://www.w3.org/2000/svg" viewBox="0 0 367.07 488.11"><defs><style>.d{fill:#a0a0a0;}</style></defs><g id="a"/><g id="b"><g id="c"><path d="M123.59,487.25H1.06v-122.53H123.59v122.53Zm-121.53-1H122.59v-120.53H2.06v120.53Z"/><polygon points="364.98 122.95 242.96 122.95 242.96 .42 364.98 .42 364.98 1.42 243.96 1.42 243.96 121.95 364.98 121.95 364.98 122.95"/><polygon points="123.91 244.2 1.06 244.2 1.06 121.46 62.86 121.46 62.86 122.46 2.06 122.46 2.06 243.2 122.91 243.2 122.91 182.7 123.91 182.7 123.91 244.2"/><path class="d" d="M99.4,426.13c-.47-.9-.95-1.86-1.45-2.88-10-20.44-14.17-23.4-21.51-23.4-5.57,0-12.52,4.3-17.58,19.73-.7,2.14-1.37,4.31-2.01,6.45l42.56,.09Z"/><rect x="1.56" y="425.62" width="121.26" height="1"/><path d="M2.03,464l-.96-.29c.02-.06,1.86-5.98,5.33-11.81,4.65-7.82,10.1-11.95,15.77-11.95,6.64,0,10.93,4.09,14.37,7.38,2.26,2.15,4.2,4.01,6.12,4.01,6.08,0,9.43-11.2,12.98-23.06,.87-2.9,1.77-5.91,2.73-8.85,2.46-7.5,8.08-20.08,18.06-20.08,7.78,0,12.04,3.42,21.96,23.68,8.12,16.59,12.29,16.92,14.34,16.92,.04,0,.09,0,.13,0h.14c2.32,0,5.73-2.71,7.76-7.9l2.02-5.19,.93,.36-2.02,5.19c-1.96,5.03-5.54,8.54-8.69,8.54h-.13c-.05,0-.11,0-.16,0-2.42,0-6.83-.37-15.21-17.49-10.24-20.94-14.28-23.12-21.06-23.12-9.35,0-14.73,12.15-17.11,19.39-.96,2.93-1.86,5.93-2.73,8.83-3.82,12.76-7.12,23.77-13.94,23.77-2.32,0-4.4-1.99-6.81-4.29-3.32-3.16-7.45-7.1-13.68-7.1-12.88,0-20.07,22.82-20.14,23.05Z"/><path d="M304.49,488.11c-33.76,0-61.23-27.47-61.23-61.23s27.47-61.23,61.23-61.23,61.23,27.47,61.23,61.23-27.47,61.23-61.23,61.23Zm0-121.47c-33.21,0-60.23,27.02-60.23,60.23s27.02,60.23,60.23,60.23,60.23-27.02,60.23-60.23-27.02-60.23-60.23-60.23Z"/><path d="M305.72,366.35c-33.83,0-61.35-27.52-61.35-61.35s27.52-61.35,61.35-61.35,61.35,27.52,61.35,61.35-27.52,61.35-61.35,61.35Zm0-121.7c-33.28,0-60.35,27.07-60.35,60.35s27.07,60.35,60.35,60.35,60.35-27.07,60.35-60.35-27.07-60.35-60.35-60.35Z"/><path d="M184.14,366.23c-33.76,0-61.23-27.47-61.23-61.23s27.47-61.23,61.23-61.23,61.23,27.47,61.23,61.23-27.47,61.23-61.23,61.23Zm0-121.47c-33.21,0-60.23,27.02-60.23,60.23s27.02,60.23,60.23,60.23,60.23-27.02,60.23-60.23-27.02-60.23-60.23-60.23Z"/><path d="M189.68,476.13c-30.71,0-55.69-24.98-55.69-55.69h1c0,30.16,24.53,54.69,54.69,54.69v1Z"/><path d="M229.75,72.53h-1c0-30.16-24.53-54.69-54.69-54.69v-1c30.71,0,55.69,24.98,55.69,55.69Z"/><path d="M183.77,116.02h-1c0-23.59,19.19-42.77,42.77-42.77v1c-23.03,0-41.77,18.74-41.77,41.77Z"/><path d="M244.25,427.03h-1c0-33.53-26.77-60.81-59.67-60.81l-60.5-.5v-1l60.5,.5c33.45,0,60.67,27.73,60.67,61.81Z"/><path d="M182.76,122.47c-33.76,0-61.23-27.47-61.23-61.23h1c0,33.21,27.02,60.23,60.23,60.23s60.23-27.02,60.23-60.23S215.97,1,182.76,1H61.23V0h121.53c33.76,0,61.23,27.47,61.23,61.23s-27.47,61.23-61.23,61.23Z"/><path d="M61.23,122.47C27.47,122.47,0,95,0,61.23S27.47,0,61.23,0s61.23,27.47,61.23,61.23-27.47,61.23-61.23,61.23ZM61.23,1C28.02,1,1,28.02,1,61.23s27.02,60.23,60.23,60.23,60.23-27.02,60.23-60.23S94.45,1,61.23,1Z"/><path d="M123.69,304.73h-16.36v-.5c0-24.63-20.04-44.67-44.67-44.67s-44.67,20.04-44.67,44.67v.5H1.63v-.5c0-33.65,27.38-61.03,61.03-61.03s61.03,27.38,61.03,61.03v.5Zm-15.36-1h14.36c-.27-32.87-27.1-59.53-60.03-59.53S2.91,270.86,2.63,303.73h14.36c.27-24.95,20.65-45.17,45.67-45.17s45.4,20.22,45.67,45.17Z"/><g><rect class="d" x="344.27" y="391.41" width="20.95" height="96.2"/><path d="M365.72,488.11h-21.95v-97.2h21.95v97.2Zm-20.95-1h19.95v-95.2h-19.95v95.2Z"/></g><path d="M344.77,488.11h-21.95v-59.45h21.95v59.45Zm-20.95-1h19.95v-57.45h-19.95v57.45Z"/><path d="M323.83,488.11h-21.95v-28.15h21.95v28.15Zm-20.95-1h19.95v-26.15h-19.95v26.15Z"/><polygon points="295.87 429.24 294.87 429.24 294.87 410.14 275.83 410.14 275.83 409.14 295.87 409.14 295.87 429.24"/><rect x="272.13" y="418.89" width="27.34" height="1" transform="translate(-212.85 324.92) rotate(-45)"/><rect x="126.43" y="439.34" width="95.26" height="1" transform="translate(-260.03 251.91) rotate(-45)"/><path d="M321.42,360.38c-20.27,0-36.76-16.49-36.76-36.76s16.49-36.76,36.76-36.76,36.76,16.49,36.76,36.76-16.49,36.76-36.76,36.76Zm0-72.52c-19.72,0-35.76,16.04-35.76,35.76s16.04,35.76,35.76,35.76,35.76-16.04,35.76-35.76-16.04-35.76-35.76-35.76Z"/><circle cx="289.16" cy="286.75" r="36.26"/><path d="M55.95,47.91c-3.66,0-6.64-2.98-6.64-6.65s2.98-6.65,6.64-6.65,6.65,2.98,6.65,6.65-2.98,6.65-6.65,6.65Zm0-12.29c-3.11,0-5.64,2.53-5.64,5.65s2.53,5.65,5.64,5.65,5.65-2.53,5.65-5.65-2.53-5.65-5.65-5.65Z"/><path d="M94.03,46.44c-3.66,0-6.65-2.98-6.65-6.65s2.98-6.65,6.65-6.65,6.65,2.98,6.65,6.65-2.98,6.65-6.65,6.65Zm0-12.29c-3.11,0-5.65,2.53-5.65,5.65s2.53,5.65,5.65,5.65,5.65-2.53,5.65-5.65-2.53-5.65-5.65-5.65Z"/><circle cx="114.73" cy="317.88" r="7.6"/><path d="M96.63,353.05c-4.47,0-8.1-3.63-8.1-8.1s3.63-8.1,8.1-8.1,8.1,3.63,8.1,8.1-3.63,8.1-8.1,8.1Zm0-15.21c-3.92,0-7.1,3.19-7.1,7.1s3.19,7.1,7.1,7.1,7.1-3.19,7.1-7.1-3.19-7.1-7.1-7.1Z"/><circle cx="61.99" cy="356.89" r="7.6"/><path d="M28.32,352.57c-4.47,0-8.1-3.63-8.1-8.1s3.63-8.1,8.1-8.1,8.1,3.63,8.1,8.1-3.63,8.1-8.1,8.1Zm0-15.21c-3.92,0-7.1,3.19-7.1,7.1s3.19,7.1,7.1,7.1,7.1-3.19,7.1-7.1-3.19-7.1-7.1-7.1Z"/><circle cx="10.09" cy="317.88" r="7.6"/><circle cx="90.21" cy="69.9" r="4.65"/><g><circle class="d" cx="28.97" cy="78.67" r="6.15"/><path d="M28.96,85.32c-3.66,0-6.64-2.98-6.64-6.65s2.98-6.65,6.64-6.65,6.65,2.98,6.65,6.65-2.98,6.65-6.65,6.65Zm0-12.29c-3.11,0-5.64,2.53-5.64,5.65s2.53,5.65,5.64,5.65,5.65-2.53,5.65-5.65-2.53-5.65-5.65-5.65Z"/></g><path d="M55.95,94.28c-3.66,0-6.64-2.98-6.64-6.65s2.98-6.65,6.64-6.65,6.65,2.98,6.65,6.65-2.98,6.65-6.65,6.65Zm0-12.29c-3.11,0-5.64,2.53-5.64,5.65s2.53,5.65,5.64,5.65,5.65-2.53,5.65-5.65-2.53-5.65-5.65-5.65Z"/><g><circle class="d" cx="63.24" cy="64.48" r="9.33"/><path d="M63.24,74.31c-5.42,0-9.83-4.41-9.83-9.83s4.41-9.83,9.83-9.83,9.83,4.41,9.83,9.83-4.41,9.83-9.83,9.83Zm0-18.65c-4.87,0-8.83,3.96-8.83,8.83s3.96,8.83,8.83,8.83,8.83-3.96,8.83-8.83-3.96-8.83-8.83-8.83Z"/></g><path d="M184.14,244.35c-33.76,0-61.23-27.47-61.23-61.23s27.47-61.23,61.23-61.23v1c-33.21,0-60.23,27.02-60.23,60.23s27.02,60.23,60.23,60.23,60.23-27.02,60.23-60.23h1c0,33.76-27.47,61.23-61.23,61.23Z"/><g><path d="M184.14,158.69c3.21,0,6.28,.62,9.08,1.75l13.08-33.88h0c-6.87-2.69-14.34-4.17-22.17-4.17"/><path d="M193.51,161.09l-.47-.19c-2.83-1.13-5.82-1.71-8.9-1.71v-1c3.03,0,5.99,.54,8.8,1.6l12.72-32.95c-6.86-2.63-14.1-3.96-21.52-3.96v-1c7.71,0,15.23,1.42,22.35,4.21l.46,.18-13.44,34.82Z"/></g><g><path class="d" d="M225.85,138.97c-3.59-3.39-7.6-6.35-11.93-8.8h0l-17.67,31.73c1.82,1.04,3.5,2.31,4.98,3.77l24.62-26.7h0Z"/><path d="M201.26,166.39l-.37-.36c-1.47-1.44-3.11-2.68-4.88-3.69l-.43-.25,.24-.43,17.91-32.16,.44,.25c4.35,2.45,8.39,5.44,12.03,8.87l.36,.34-25.3,27.44Zm-4.33-4.67c1.54,.92,2.98,2.01,4.29,3.24l23.93-25.96c-3.36-3.12-7.07-5.86-11.03-8.14l-17.19,30.86Z"/></g><path d="M184.14,208.04c-13.75,0-24.93-11.18-24.93-24.93s10.91-24.65,24.43-24.92v-35.81h1v36.81h-.5c-13.19,0-23.93,10.73-23.93,23.93s10.73,23.93,23.93,23.93,23.93-10.73,23.93-23.93v-.5h36.81v1h-35.81c-.27,13.52-11.34,24.43-24.92,24.43Z"/><path d="M115.4,182.85H8.52v-53.28H115.4v53.28Zm-105.88-1H114.4v-51.28H9.52v51.28Z"/><g><rect class="d" x="9.02" y="189.37" width="69.35" height="11.65"/><path d="M78.87,201.52H8.52v-12.65H78.87v12.65Zm-69.35-1H77.87v-10.65H9.52v10.65Z"/></g><path d="M54.77,214.49H8.52v-6.73H54.77v6.73Zm-45.25-1H53.77v-4.73H9.52v4.73Z"/><polygon points="262.82 105.07 243.38 98 243.73 97.06 262.29 103.81 278.46 68.18 304.73 83.34 327.38 50.59 348.83 68.31 364.58 18.63 365.54 18.94 349.33 70.03 327.59 52.05 305.03 84.66 278.91 69.59 262.82 105.07"/><g><circle class="d" cx="262.63" cy="103.36" r="4.25"/><path d="M262.63,108.11c-2.62,0-4.75-2.13-4.75-4.75s2.13-4.75,4.75-4.75,4.75,2.13,4.75,4.75-2.13,4.75-4.75,4.75Zm0-8.49c-2.07,0-3.75,1.68-3.75,3.75s1.68,3.75,3.75,3.75,3.75-1.68,3.75-3.75-1.68-3.75-3.75-3.75Z"/></g><circle cx="279.04" cy="69.22" r="4.25"/><g><circle class="d" cx="174.06" cy="17.34" r="4.25"/><path d="M174.06,22.08c-2.62,0-4.75-2.13-4.75-4.75s2.13-4.75,4.75-4.75,4.75,2.13,4.75,4.75-2.13,4.75-4.75,4.75Zm0-8.49c-2.07,0-3.75,1.68-3.75,3.75s1.68,3.75,3.75,3.75,3.75-1.68,3.75-3.75-1.68-3.75-3.75-3.75Z"/></g><g><circle class="d" cx="229.25" cy="74.55" r="4.25"/><path d="M229.25,79.29c-2.62,0-4.75-2.13-4.75-4.75s2.13-4.75,4.75-4.75,4.75,2.13,4.75,4.75-2.13,4.75-4.75,4.75Zm0-8.49c-2.07,0-3.75,1.68-3.75,3.75s1.68,3.75,3.75,3.75,3.75-1.68,3.75-3.75-1.68-3.75-3.75-3.75Z"/></g><g><circle class="d" cx="152.36" cy="460.46" r="4.25"/><path d="M152.36,465.21c-2.62,0-4.75-2.13-4.75-4.75s2.13-4.75,4.75-4.75,4.75,2.13,4.75,4.75-2.13,4.75-4.75,4.75Zm0-8.49c-2.07,0-3.75,1.68-3.75,3.75s1.68,3.75,3.75,3.75,3.75-1.68,3.75-3.75-1.68-3.75-3.75-3.75Z"/></g><g><circle class="d" cx="305.3" cy="83.17" r="4.25"/><path d="M305.3,87.92c-2.62,0-4.75-2.13-4.75-4.75s2.13-4.75,4.75-4.75,4.75,2.13,4.75,4.75-2.13,4.75-4.75,4.75Zm0-8.49c-2.07,0-3.75,1.68-3.75,3.75s1.68,3.75,3.75,3.75,3.75-1.68,3.75-3.75-1.68-3.75-3.75-3.75Z"/></g><g><circle class="d" cx="328.4" cy="52.83" r="4.25"/><path d="M328.4,57.57c-2.62,0-4.75-2.13-4.75-4.75s2.13-4.75,4.75-4.75,4.75,2.13,4.75,4.75-2.13,4.75-4.75,4.75Zm0-8.49c-2.07,0-3.75,1.68-3.75,3.75s1.68,3.75,3.75,3.75,3.75-1.68,3.75-3.75-1.68-3.75-3.75-3.75Z"/></g><circle cx="348.76" cy="68.57" r="4.25"/><g><path class="d" d="M25.78,304.65h9.36c0,15.18,12.35,27.52,27.52,27.52s27.52-12.35,27.52-27.52h9.36c0,20.34-16.54,36.88-36.88,36.88s-36.88-16.54-36.88-36.88Z"/><path d="M62.66,342.03c-20.61,0-37.38-16.77-37.38-37.38v-.5h10.36v.5c0,14.9,12.12,27.02,27.02,27.02s27.02-12.12,27.02-27.02v-.5h10.36v.5c0,20.61-16.77,37.38-37.38,37.38Zm-36.38-36.88c.27,19.83,16.48,35.88,36.38,35.88s36.11-16.05,36.38-35.88h-8.36c-.27,15.22-12.73,27.52-28.02,27.52s-27.75-12.3-28.02-27.52h-8.36Z"/></g><path d="M367.07,244.55h-122.7v-61.94h122.7v61.94Zm-121.7-1h120.7v-59.94h-120.7v59.94Z"/><path d="M367.07,183.62h-101.45v-26.44h101.45v26.44Zm-100.45-1h99.45v-24.44h-99.45v24.44Z"/><path d="M306.06,223.69c-22.44,0-40.7-18.26-40.7-40.7s18.26-40.7,40.7-40.7,40.7,18.26,40.7,40.7-18.26,40.7-40.7,40.7Zm0-80.41c-21.89,0-39.7,17.81-39.7,39.7s17.81,39.7,39.7,39.7,39.7-17.81,39.7-39.7-17.81-39.7-39.7-39.7Z"/><rect x="123.09" y="486.25" width="120.37" height="1"/><path d="M184.14,352.41c-26.14,0-47.41-21.27-47.41-47.41s21.27-47.41,47.41-47.41,47.41,21.27,47.41,47.41-21.27,47.41-47.41,47.41Zm0-93.82c-25.59,0-46.41,20.82-46.41,46.41s20.82,46.41,46.41,46.41,46.41-20.82,46.41-46.41-20.82-46.41-46.41-46.41Z"/><rect x="123.19" y="303.73" width="14.04" height="1"/><rect x="183.64" y="351.91" width="1" height="13.82"/><path d="M184.14,319.84v-1c7.63,0,13.84-6.21,13.84-13.84s-6.21-13.85-13.84-13.85-13.85,6.21-13.85,13.85h-1c0-8.19,6.66-14.85,14.85-14.85s14.84,6.66,14.84,14.85-6.66,14.84-14.84,14.84Z"/><path d="M265.86,182.99c0,22.2,18,40.2,40.2,40.2s40.2-18,40.2-40.2"/></g></g></svg>