<?xml version="1.0" encoding="utf-8"?>
<!-- Generator: Adobe Illustrator 26.5.0, SVG Export Plug-In . SVG Version: 6.00 Build 0)  -->
<svg version="1.1" id="Layer_1" xmlns="http://www.w3.org/2000/svg" xmlns:xlink="http://www.w3.org/1999/xlink" x="0px" y="0px"
	 viewBox="0 0 500 500" style="enable-background:new 0 0 500 500;" xml:space="preserve">
<style type="text/css">
	.st0{fill:#4D5B6E;}
	.st1{fill:#FFFFFF;}
</style>
<g>
	<rect x="-3.9" y="-4.4" class="st0" width="507.8" height="507.1"/>
</g>
<g id="Layer_2_00000011740641152474408110000012377591901588736186_">
	<g id="Layer_1-2">
		<polygon class="st1" points="155.9,280.1 137.9,280.1 137.9,294.5 155.9,294.5 155.9,340.9 173,340.9 173,294.5 191.2,294.5 
			191.2,280.1 173,280.1 		"/>
		<path class="st1" d="M249,287.9c-3-3-6.6-5.1-10.5-6.6c-8.4-3-18-3-26.3,0c-3.9,1.5-7.5,3.9-10.5,6.6c-3,2.7-5.4,6.3-6.9,9.9
			c-3.3,8.1-3.3,17.1,0,25.1c1.5,3.9,3.9,7.2,6.9,10.2c3,3,6.6,5.1,10.5,6.6c8.4,3.3,17.7,3.3,26.3,0c3.9-1.5,7.5-3.9,10.5-6.6
			c3-3,5.4-6.3,6.9-10.2c3.3-8.1,3.3-17.1,0-25.1C254.1,294.2,252,290.6,249,287.9z M239.1,319.3c-1.2,2.4-3,4.5-5.4,5.7
			c-2.4,1.5-5.4,2.1-8.4,2.1c-2.1,0-4.5-0.3-6.6-1.2c-1.8-0.6-3.6-1.8-4.8-3.3c-1.5-1.5-2.4-3.3-3-5.4c-0.6-2.1-1.2-4.5-0.9-6.9
			c0-3,0.6-6,1.8-8.7c1.2-2.4,3-4.5,5.4-5.7c2.4-1.5,5.4-2.1,8.4-2.1c2.1,0,4.5,0.3,6.6,1.2c1.8,0.6,3.6,1.8,4.8,3.3
			c1.5,1.5,2.4,3.3,3,5.1c0.6,2.1,1.2,4.5,0.9,6.9C240.9,313.3,240.3,316.3,239.1,319.3z"/>
		<path class="st1" d="M319.6,287.9c-3-3-6.6-5.1-10.5-6.6c-8.4-3-18-3-26.3,0c-3.9,1.5-7.5,3.9-10.5,6.6c-3,2.7-5.4,6.3-6.9,9.9
			c-3.3,8.1-3.3,17.1,0,25.1c1.5,3.9,3.9,7.2,6.9,10.2s6.6,5.1,10.5,6.6c8.4,3.3,17.7,3.3,26.3,0c3.9-1.5,7.5-3.9,10.5-6.6
			c3-3,5.4-6.3,6.9-10.2c3.3-8.1,3.3-17.1,0-25.1C325,294.2,322.6,290.6,319.6,287.9z M309.8,319.3c-1.2,2.4-3,4.5-5.4,5.7
			c-2.4,1.5-5.4,2.1-8.4,2.1c-2.1,0-4.5-0.3-6.6-1.2c-1.8-0.6-3.6-1.8-4.8-3.3c-1.5-1.5-2.4-3.3-3-5.4c-0.6-2.1-1.2-4.5-0.9-6.9
			c0-3,0.6-6,1.8-8.7c1.2-2.4,3-4.5,5.4-5.7c2.4-1.5,5.4-2.1,8.4-2.1c2.1,0,4.5,0.3,6.6,1.2c1.8,0.6,3.6,1.8,4.8,3.3
			c1.5,1.5,2.4,3.3,3,5.1c0.6,2.1,1.2,4.5,1.2,6.9C311.9,313.3,311.3,316.3,309.8,319.3z"/>
		<path class="st1" d="M421.4,309.1c-1.8-1.5-3.6-2.7-5.4-3.6c-2.1-0.9-3.9-1.8-6-2.4c-2.1-0.6-3.9-1.2-5.7-2.1
			c-1.5-0.6-2.7-1.2-4.2-2.1c-0.9-0.6-1.5-1.8-1.5-3c0-1.2,0.6-2.1,1.5-2.7c1.2-0.6,2.7-0.9,4.2-0.9c2.1,0,4.2,0.3,6,1.2
			c2.1,0.9,3.9,2.4,5.7,4.2l10.8-10.8c-2.7-2.7-6-4.8-9.6-6.3c-4.2-1.5-8.4-2.1-12.6-2.1c-4.2,0-8.1,0.6-12,2.4
			c-6.9,2.7-11.1,9.3-10.8,16.8c0,2.7,0.3,5.4,1.5,7.8c0.9,2.1,2.4,3.9,4.2,5.1c1.8,1.5,3.6,2.7,5.4,3.6c2.1,0.9,3.9,1.8,6,2.4
			c2.1,0.6,3.9,1.5,5.7,2.1c1.5,0.6,3,1.2,4.2,2.1c0.9,0.6,1.5,1.8,1.5,3c0,1.2-0.6,2.4-1.8,3c-1.5,0.9-3.6,1.2-5.4,1.2
			c-2.7,0-5.4-0.6-7.8-1.8c-2.7-1.2-5.1-2.7-6.9-4.8l-9.9,9.9v-5.4h-25.1v-45.8h-17.1v60.8h41.9v-7.8c2.7,2.7,6.3,5.1,9.9,6.6
			c4.2,1.5,9,2.4,13.5,2.4c8.1,0,14.4-1.8,18.6-5.1c4.5-3.3,6.6-8.1,6.6-14.4c0-2.7-0.3-5.4-1.5-7.8
			C424.7,312.4,423.2,310.6,421.4,309.1z"/>
		<path class="st1" d="M438.5,146.6H71.2c-6.3,0-11.7,4.5-12.9,10.8l-17.4,93.7c-1.2,7.2,3.3,13.8,10.5,15.3c0.9,0,1.5,0.3,2.4,0.3
			h367c6.3,0,11.7-4.5,12.9-10.5l17.7-93.7c1.2-7.2-3.3-13.8-10.5-15.3C440.3,146.6,439.4,146.6,438.5,146.6z"/>
		<path class="st1" d="M428,373.2H109.5c-9.6,0-17.7-7.8-17.7-17.7c0-1.2,0-2.4,0.3-3.6l13.8-66.8c0.3-2.4,2.7-4.2,5.4-3.9
			c2.4,0.3,4.2,2.7,3.9,5.4v0.3l-13.8,66.8c-0.9,4.5,2.1,9,6.6,9.9c0.6,0,1.2,0.3,1.8,0.3h318.5c3.9,0,7.5-2.7,8.4-6.6l19.2-93.7
			c0.9-4.5-2.1-9-6.6-9.9c-0.6,0-1.2-0.3-1.8-0.3h-5.1c-2.4,0-4.5-2.1-4.5-4.5c0-2.4,2.1-4.5,4.5-4.5h5.1c9.6,0,17.7,7.8,17.7,17.7
			c0,1.2,0,2.4-0.3,3.6l-19.2,93.7C443.6,367.2,436.4,373.2,428,373.2z"/>
		<g>
			<path class="st0" d="M113.4,222.9c-2.1,0.9-4.5,1.2-6.9,1.2c-2.1,0-4.2-0.3-6.3-1.2c-1.8-0.6-3.6-1.8-4.8-3.3
				c-1.5-1.5-2.4-3.3-3.3-5.1c-0.9-2.1-1.2-4.5-1.2-6.9c0-2.4,0.3-4.5,1.2-6.9c0.6-1.8,1.8-3.6,3.3-5.1c1.5-1.5,3-2.4,4.8-3.3
				c2.1-0.9,4.2-1.2,6.3-1.2c2.4,0,4.8,0.3,6.9,1.2c1.8,0.9,3.6,2.1,5.1,3.6l11.4-11.4c-3-2.7-6.6-4.8-10.2-6
				c-4.2-1.5-8.7-2.4-13.2-2.4s-9,0.9-12.9,2.4c-3.9,1.5-7.5,3.6-10.5,6.6c-3,2.7-5.4,6.3-6.9,9.9c-3.3,8.1-3.3,17.1,0,25.1
				c1.5,3.9,3.9,7.2,7.2,10.2c3,3,6.6,5.1,10.5,6.6c4.2,1.5,8.7,2.4,12.9,2.4c4.5,0,9-0.6,13.2-2.1c3.6-1.5,7.2-3.6,10.2-6
				l-11.7-11.4C117.3,220.8,115.5,222,113.4,222.9z"/>
		</g>
		<g>
			<path class="st0" d="M173.6,211.6c3-1.5,5.7-3.6,7.8-6.3c1.8-2.7,3-6.3,2.7-9.6c0-3.3-0.9-6.6-2.7-9.6c-1.8-2.7-4.5-5.1-7.5-6.3
				c-3.6-1.5-7.2-2.4-11.1-2.4h-26.9v60.8h17.1v-24.2h0.3l15.6,24.2h19.5l-17.7-25.4C171.5,212.4,172.7,212.1,173.6,211.6z
				 M160.1,189.7c1.8,0,3.9,0.6,5.4,1.8c2.4,2.4,2.4,6.6,0,9c-1.5,1.2-3.3,1.8-5.4,1.8h-7.2v-12.6H160.1z"/>
		</g>
		<g>
			<polygon class="st0" points="225.3,177.4 215.2,196.3 205,177.4 185.5,177.4 206.5,213.9 206.5,238.2 223.8,238.2 223.8,213 
				244.5,177.4 			"/>
		</g>
		<g>
			<path class="st0" d="M286.7,179.5c-3.3-1.5-6.9-2.4-10.8-2.4h-28.1v61.1h17.1v-21.3h11.1c3.6,0,7.2-0.9,10.8-2.4
				c3-1.5,5.7-3.9,7.5-6.9c1.8-3.3,3-6.9,2.7-10.5c0-3.6-0.9-7.5-2.7-10.8C292.4,183.4,290,181.3,286.7,179.5z M279.2,201.1
				c-0.6,1.2-1.5,1.8-2.7,2.4c-1.2,0.6-2.4,0.9-3.6,0.9h-7.8v-15h7.8c1.2,0,2.4,0.3,3.6,0.9c1.2,0.6,2.1,1.5,2.7,2.4
				c0.6,1.2,1.2,2.7,0.9,4.2C280.1,198.4,279.8,199.9,279.2,201.1z"/>
		</g>
		<g>
			<polygon class="st0" points="317.6,177.4 299.3,177.4 299.3,191.8 317.6,191.8 317.6,238.2 334.6,238.2 334.6,191.8 352.9,191.8 
				352.9,177.4 334.6,177.4 			"/>
		</g>
		<g>
			<path class="st0" d="M417.2,195.1c-1.5-3.9-3.9-7.2-6.9-10.2c-3-3-6.6-5.1-10.5-6.6c-8.4-3-18-3-26.3,0
				c-3.9,1.5-7.5,3.6-10.5,6.6c-3,2.7-5.4,6.3-6.9,9.9c-1.8,3.9-2.4,8.4-2.4,12.6c0,4.2,0.9,8.7,2.4,12.6c1.5,3.9,3.9,7.2,6.9,10.2
				c3,3,6.6,5.1,10.5,6.6c8.4,3.3,17.7,3.3,26.3,0c3.9-1.5,7.5-3.6,10.5-6.6c3-3,5.4-6.3,6.9-10.2c1.8-3.9,2.4-8.1,2.4-12.6
				C419.9,203.5,419,199,417.2,195.1z M400.5,216.3c-1.2,2.4-3,4.5-5.4,5.7c-2.4,1.5-5.4,2.1-8.4,2.1c-2.1,0-4.5-0.3-6.6-1.2
				c-1.8-0.6-3.6-1.8-4.8-3.3c-1.5-1.5-2.4-3.3-3-5.4c-0.6-2.1-1.2-4.5-1.2-6.9c0-3,0.6-6,1.8-8.7c1.2-2.4,3-4.5,5.4-5.7
				c2.4-1.5,5.4-2.1,8.4-2.1c2.1,0,4.5,0.3,6.6,1.2c1.8,0.9,3.6,1.8,4.8,3.3c1.5,1.5,2.4,3.3,3,5.1c0.6,2.1,1.2,4.5,0.9,6.9
				C402.3,210.7,401.7,213.6,400.5,216.3z"/>
		</g>
	</g>
</g>
</svg>
