<?xml version="1.0" encoding="utf-8"?>
<!-- Generator: Adobe Illustrator 27.5.0, SVG Export Plug-In . SVG Version: 6.00 Build 0)  -->
<svg version="1.1" id="Layer_1" xmlns="http://www.w3.org/2000/svg" xmlns:xlink="http://www.w3.org/1999/xlink" x="0px" y="0px"
	 viewBox="0 0 415.3 221.9" style="enable-background:new 0 0 415.3 221.9;" xml:space="preserve">
<style type="text/css">
	.st0{fill:#FFFFFF;}
</style>
<polygon class="st0" points="112.7,130.7 94.9,130.7 94.9,144.9 112.7,144.9 112.7,190.2 129.5,190.2 129.5,144.9 147.4,144.9 
	147.4,130.7 129.5,130.7 "/>
<path class="st0" d="M203.7,138.3c-3-2.8-6.4-5-10.2-6.5c-8.3-3.1-17.5-3.1-25.8,0c-3.8,1.5-7.3,3.7-10.2,6.5
	c-2.9,2.8-5.2,6.1-6.7,9.8c-3.2,7.9-3.2,16.7,0,24.6c1.6,3.7,3.9,7.1,6.8,9.9c3,2.8,6.5,5,10.3,6.5c8.3,3.1,17.4,3.1,25.7,0
	c3.8-1.5,7.3-3.7,10.2-6.5c2.9-2.8,5.2-6.1,6.7-9.9c3.2-7.9,3.2-16.7,0-24.6C208.9,144.3,206.6,141,203.7,138.3z M194,169
	c-1.2,2.4-3,4.4-5.3,5.7c-2.5,1.4-5.3,2.1-8.1,2c-2.2,0-4.3-0.4-6.3-1.1c-1.8-0.7-3.5-1.8-4.8-3.3c-1.4-1.5-2.4-3.2-3.1-5.1
	c-0.7-2.2-1-4.5-1-6.8c-0.1-3,0.6-5.9,1.8-8.6c1.2-2.4,3-4.3,5.3-5.6c2.5-1.4,5.3-2.1,8.1-2c2.2,0,4.3,0.4,6.3,1.1
	c1.8,0.7,3.5,1.8,4.8,3.3c1.4,1.5,2.4,3.2,3.1,5.1c0.7,2.1,1,4.4,1,6.6C195.9,163.3,195.3,166.3,194,169z"/>
<path class="st0" d="M273.1,138.3c-3-2.8-6.4-5-10.2-6.5c-8.3-3.1-17.5-3.1-25.8,0c-3.8,1.5-7.3,3.7-10.2,6.5
	c-2.9,2.8-5.2,6.1-6.7,9.8c-3.2,7.9-3.2,16.7,0,24.6c1.6,3.7,3.9,7.1,6.8,9.9c3,2.8,6.5,5,10.3,6.5c8.3,3.1,17.4,3.1,25.7,0
	c3.8-1.5,7.3-3.7,10.2-6.5c2.9-2.8,5.2-6.2,6.7-9.9c3.2-7.9,3.2-16.7,0-24.6C278.3,144.3,276,141,273.1,138.3z M263.4,169
	c-1.2,2.4-3,4.4-5.3,5.7c-2.5,1.4-5.3,2.1-8.1,2c-2.2,0-4.3-0.4-6.3-1.1c-1.8-0.7-3.5-1.8-4.8-3.3c-1.4-1.5-2.4-3.2-3-5.1
	c-0.7-2.2-1-4.5-1-6.8c-0.1-3,0.6-5.9,1.8-8.6c1.2-2.4,3-4.3,5.3-5.6c2.5-1.4,5.3-2.1,8.1-2c2.2,0,4.3,0.4,6.3,1.1
	c1.8,0.7,3.5,1.8,4.8,3.3c1.3,1.5,2.4,3.2,3,5.1c0.7,2.1,1.1,4.4,1,6.6C265.3,163.3,264.7,166.3,263.4,169z"/>
<path class="st0" d="M372.8,159.1c-1.6-1.4-3.4-2.6-5.4-3.5c-1.9-0.9-3.9-1.7-5.9-2.4c-2-0.7-3.8-1.3-5.4-1.9c-1.4-0.5-2.8-1.1-4-2
	c-1-0.7-1.5-1.7-1.5-2.9c0-1.1,0.6-2,1.5-2.5c1.3-0.6,2.7-0.9,4.1-0.8c2.1,0,4.1,0.4,6,1.3c2,1,3.9,2.4,5.5,4l10.5-10.5
	c-2.7-2.7-5.9-4.8-9.5-6.1c-4-1.4-8.2-2.2-12.4-2.1c-4-0.1-8.1,0.7-11.8,2.2c-6.6,2.7-10.8,9.2-10.5,16.4c-0.1,2.6,0.4,5.1,1.5,7.5
	c1,2,2.3,3.7,4,5.1c1.6,1.4,3.5,2.5,5.4,3.5c1.9,0.9,3.9,1.7,5.9,2.4c2,0.7,3.8,1.3,5.4,2c1.4,0.5,2.8,1.3,4,2.2
	c1,0.7,1.5,1.8,1.5,3.1c0,1.2-0.7,2.3-1.8,2.9c-1.6,0.8-3.4,1.2-5.2,1.1c-2.7,0-5.3-0.5-7.7-1.6c-2.5-1.2-4.8-2.8-6.9-4.7l-9.7,9.7
	V176h-24.8v-45.3h-16.7v59.6h41.5v-7.6c2.8,2.7,6.1,4.9,9.7,6.3c4.2,1.6,8.7,2.3,13.2,2.2c7.9,0,13.9-1.7,18.3-5
	c4.3-3.3,6.5-8,6.5-14.1c0.1-2.6-0.4-5.3-1.5-7.7C375.8,162.4,374.5,160.6,372.8,159.1z"/>
<path class="st0" d="M389.5,0H29.7c-6.1,0-11.4,4.4-12.5,10.4l-17,91.7c-1.3,6.9,3.3,13.6,10.2,14.9c0.8,0.1,1.6,0.2,2.3,0.2h359.3
	c6.1,0,11.4-4.4,12.5-10.4L402,15.1c1.3-6.9-3.2-13.6-10.1-14.9C391.1,0.1,390.3,0,389.5,0z"/>
<path class="st0" d="M379.2,221.9h-312c-9.5,0-17.3-7.7-17.3-17.2c0-1.2,0.1-2.3,0.4-3.5l13.5-65.5c0.4-2.5,2.7-4.1,5.2-3.7
	c2.5,0.4,4.1,2.7,3.7,5.2c0,0.1,0,0.2-0.1,0.3L59.1,203c-0.9,4.5,2,8.8,6.4,9.7c0.5,0.1,1.1,0.2,1.6,0.2h312c3.9,0,7.3-2.8,8.1-6.6
	l18.8-91.7c0.9-4.5-2-8.8-6.4-9.7c-0.5-0.1-1.1-0.2-1.6-0.2h-4.8c-2.5,0-4.5-2-4.5-4.5s2-4.5,4.5-4.5h4.9c9.5,0,17.3,7.7,17.3,17.2
	c0,1.2-0.1,2.3-0.3,3.5l-18.9,91.7C394.5,216.1,387.4,221.9,379.2,221.9z"/>
<path d="M71,74.7c-2.2,0.8-4.4,1.2-6.7,1.2c-2.1,0-4.2-0.4-6.1-1.1c-1.8-0.7-3.5-1.8-4.8-3.2c-1.4-1.5-2.4-3.2-3.1-5.1
	C49.4,64.3,49,62,49,59.7c0-2.3,0.4-4.5,1.1-6.7c0.7-1.9,1.8-3.6,3.1-5.1c1.4-1.4,3-2.5,4.8-3.2c2-0.7,4-1.1,6.1-1.1
	c2.3-0.1,4.6,0.4,6.8,1.3c1.9,0.8,3.5,2,4.9,3.4L87,37.2c-2.9-2.6-6.3-4.6-10-6c-4.1-1.5-8.4-2.3-12.8-2.2c-4.3,0-8.7,0.7-12.7,2.3
	c-3.8,1.5-7.3,3.6-10.2,6.4c-2.9,2.7-5.3,6-6.9,9.7c-3.3,7.9-3.3,16.7,0,24.5c1.6,3.7,4,7.1,6.9,9.8c3,2.8,6.5,5,10.3,6.5
	c4.1,1.6,8.4,2.3,12.8,2.3c4.4,0.1,8.8-0.6,13-2.1c3.7-1.4,7-3.4,10-6L76.1,71.3C74.7,72.8,72.9,73.9,71,74.7z"/>
<path d="M130.1,63.6c3.1-1.4,5.7-3.5,7.6-6.3c1.8-2.8,2.8-6,2.7-9.4c0.1-3.3-0.9-6.6-2.7-9.4c-1.8-2.7-4.4-4.9-7.4-6.3
	c-3.4-1.6-7.1-2.4-10.9-2.3H93.1v59.6h16.7V65.8h0.2l15.2,23.8h19l-17.4-24.8C127.9,64.5,129,64.1,130.1,63.6z M116.8,42.1
	c1.9-0.1,3.8,0.5,5.2,1.7c2.4,2.5,2.4,6.4,0,8.9c-1.5,1.2-3.3,1.8-5.2,1.7h-6.9V42.1H116.8z"/>
<polygon points="180.7,30 170.8,48.5 160.8,30 141.6,30 162.3,65.8 162.3,89.6 179.1,89.6 179.1,65.1 199.6,30 "/>
<path d="M240.8,32.3c-3.2-1.6-6.8-2.4-10.4-2.3h-27.6v59.6h16.7V68.7h10.9c3.6,0.1,7.2-0.7,10.4-2.3c3-1.5,5.6-3.8,7.4-6.7
	c1.9-3.1,2.8-6.7,2.7-10.4c0.1-3.7-0.8-7.3-2.7-10.4C246.4,36.1,243.8,33.8,240.8,32.3z M233.3,53.4c-0.6,1-1.5,1.9-2.6,2.4
	c-1.1,0.5-2.3,0.8-3.6,0.8h-7.6V42.1h7.6c1.2,0,2.5,0.3,3.6,0.8c1.1,0.5,2,1.4,2.6,2.4c0.7,1.2,1.1,2.6,1,4.1
	C234.4,50.8,234,52.2,233.3,53.4z"/>
<polygon points="271,30 253.1,30 253.1,44.2 271,44.2 271,89.6 287.7,89.6 287.7,44.2 305.6,44.2 305.6,30 287.7,30 "/>
<path d="M368.7,47.5c-1.5-3.7-3.8-7-6.7-9.8c-3-2.8-6.4-5-10.2-6.5c-8.3-3.1-17.5-3.1-25.8,0c-3.8,1.5-7.3,3.7-10.2,6.5
	c-2.9,2.8-5.2,6.1-6.7,9.8c-1.6,3.9-2.4,8.1-2.4,12.3c0,4.2,0.8,8.4,2.4,12.3c1.6,3.7,3.9,7.1,6.8,9.9c3,2.8,6.4,5,10.2,6.5
	c8.3,3.1,17.4,3.1,25.7,0c3.8-1.4,7.3-3.6,10.3-6.5c2.9-2.8,5.2-6.2,6.7-9.9c1.6-3.9,2.4-8,2.4-12.2
	C371.1,55.6,370.3,51.4,368.7,47.5z M352.2,68.3c-1.2,2.4-3,4.3-5.3,5.7c-2.5,1.4-5.3,2.1-8.1,2c-2.2,0-4.3-0.3-6.3-1.1
	c-1.8-0.7-3.5-1.8-4.8-3.3c-1.4-1.5-2.4-3.2-3-5.1c-0.7-2.2-1.1-4.5-1-6.8c-0.1-3,0.6-5.9,1.8-8.6c1.2-2.4,3-4.3,5.3-5.6
	c2.5-1.4,5.3-2.1,8.1-2c2.2,0,4.3,0.3,6.3,1.1c1.8,0.7,3.5,1.9,4.8,3.3c1.4,1.5,2.4,3.2,3.1,5.1c0.7,2.1,1,4.4,1,6.7
	C354,62.7,353.4,65.6,352.2,68.3z"/>
</svg>
