<?xml version="1.0" encoding="utf-8"?>
<!-- Generator: Adobe Illustrator 26.1.0, SVG Export Plug-In . SVG Version: 6.00 Build 0)  -->
<svg version="1.1" id="Layer_1" xmlns="http://www.w3.org/2000/svg" xmlns:xlink="http://www.w3.org/1999/xlink" x="0px" y="0px"
	 viewBox="0 0 500 500" style="enable-background:new 0 0 500 500;" xml:space="preserve">
<style type="text/css">
	.st0{fill:#FFFFFF;}
</style>
<rect width="500" height="500"/>
<g id="Layer_2_00000011740641152474408110000012377591901588736186_">
	<g id="Layer_1-2">
		<polygon class="st0" points="363.7,432 357.7,432 357.7,436.8 363.7,436.8 363.7,452.3 369.4,452.3 369.4,436.8 375.5,436.8 
			375.5,432 369.4,432 		"/>
		<path class="st0" d="M394.8,434.6c-1-1-2.2-1.7-3.5-2.2c-2.8-1-6-1-8.8,0c-1.3,0.5-2.5,1.3-3.5,2.2c-1,0.9-1.8,2.1-2.3,3.3
			c-1.1,2.7-1.1,5.7,0,8.4c0.5,1.3,1.3,2.4,2.3,3.4c1,1,2.2,1.7,3.5,2.2c2.8,1.1,5.9,1.1,8.8,0c1.3-0.5,2.5-1.3,3.5-2.2
			c1-1,1.8-2.1,2.3-3.4c1.1-2.7,1.1-5.7,0-8.4C396.5,436.7,395.8,435.5,394.8,434.6z M391.5,445.1c-0.4,0.8-1,1.5-1.8,1.9
			c-0.8,0.5-1.8,0.7-2.8,0.7c-0.7,0-1.5-0.1-2.2-0.4c-0.6-0.2-1.2-0.6-1.6-1.1c-0.5-0.5-0.8-1.1-1-1.8c-0.2-0.7-0.4-1.5-0.3-2.3
			c0-1,0.2-2,0.6-2.9c0.4-0.8,1-1.5,1.8-1.9c0.8-0.5,1.8-0.7,2.8-0.7c0.7,0,1.5,0.1,2.2,0.4c0.6,0.2,1.2,0.6,1.6,1.1
			c0.5,0.5,0.8,1.1,1,1.7c0.2,0.7,0.4,1.5,0.3,2.3C392.1,443.1,391.9,444.1,391.5,445.1z"/>
		<path class="st0" d="M418.4,434.6c-1-1-2.2-1.7-3.5-2.2c-2.8-1-6-1-8.8,0c-1.3,0.5-2.5,1.3-3.5,2.2c-1,0.9-1.8,2.1-2.3,3.3
			c-1.1,2.7-1.1,5.7,0,8.4c0.5,1.3,1.3,2.4,2.3,3.4c1,1,2.2,1.7,3.5,2.2c2.8,1.1,5.9,1.1,8.8,0c1.3-0.5,2.5-1.3,3.5-2.2
			c1-1,1.8-2.1,2.3-3.4c1.1-2.7,1.1-5.7,0-8.4C420.2,436.7,419.4,435.5,418.4,434.6z M415.1,445.1c-0.4,0.8-1,1.5-1.8,1.9
			c-0.8,0.5-1.8,0.7-2.8,0.7c-0.7,0-1.5-0.1-2.2-0.4c-0.6-0.2-1.2-0.6-1.6-1.1c-0.5-0.5-0.8-1.1-1-1.8c-0.2-0.7-0.4-1.5-0.3-2.3
			c0-1,0.2-2,0.6-2.9c0.4-0.8,1-1.5,1.8-1.9c0.8-0.5,1.8-0.7,2.8-0.7c0.7,0,1.5,0.1,2.2,0.4c0.6,0.2,1.2,0.6,1.6,1.1
			c0.5,0.5,0.8,1.1,1,1.7c0.2,0.7,0.4,1.5,0.4,2.3C415.8,443.1,415.6,444.1,415.1,445.1z"/>
		<path class="st0" d="M452.4,441.7c-0.6-0.5-1.2-0.9-1.8-1.2c-0.7-0.3-1.3-0.6-2-0.8c-0.7-0.2-1.3-0.4-1.9-0.7
			c-0.5-0.2-0.9-0.4-1.4-0.7c-0.3-0.2-0.5-0.6-0.5-1c0-0.4,0.2-0.7,0.5-0.9c0.4-0.2,0.9-0.3,1.4-0.3c0.7,0,1.4,0.1,2,0.4
			c0.7,0.3,1.3,0.8,1.9,1.4l3.6-3.6c-0.9-0.9-2-1.6-3.2-2.1c-1.4-0.5-2.8-0.7-4.2-0.7c-1.4,0-2.7,0.2-4,0.8
			c-2.3,0.9-3.7,3.1-3.6,5.6c0,0.9,0.1,1.8,0.5,2.6c0.3,0.7,0.8,1.3,1.4,1.7c0.6,0.5,1.2,0.9,1.8,1.2c0.7,0.3,1.3,0.6,2,0.8
			c0.7,0.2,1.3,0.5,1.9,0.7c0.5,0.2,1,0.4,1.4,0.7c0.3,0.2,0.5,0.6,0.5,1c0,0.4-0.2,0.8-0.6,1c-0.5,0.3-1.2,0.4-1.8,0.4
			c-0.9,0-1.8-0.2-2.6-0.6c-0.9-0.4-1.7-0.9-2.3-1.6l-3.3,3.3v-1.8h-8.4V432h-5.7v20.3H438v-2.6c0.9,0.9,2.1,1.7,3.3,2.2
			c1.4,0.5,3,0.8,4.5,0.8c2.7,0,4.8-0.6,6.2-1.7c1.5-1.1,2.2-2.7,2.2-4.8c0-0.9-0.1-1.8-0.5-2.6C453.5,442.8,453,442.2,452.4,441.7z
			"/>
		<path class="st0" d="M458.1,387.4H335.4c-2.1,0-3.9,1.5-4.3,3.6l-5.8,31.3c-0.4,2.4,1.1,4.6,3.5,5.1c0.3,0,0.5,0.1,0.8,0.1h122.6
			c2.1,0,3.9-1.5,4.3-3.5l5.9-31.3c0.4-2.4-1.1-4.6-3.5-5.1C458.7,387.4,458.4,387.4,458.1,387.4z"/>
		<path class="st0" d="M454.6,463.1H348.2c-3.2,0-5.9-2.6-5.9-5.9c0-0.4,0-0.8,0.1-1.2l4.6-22.3c0.1-0.8,0.9-1.4,1.8-1.3
			c0.8,0.1,1.4,0.9,1.3,1.8c0,0,0,0.1,0,0.1l-4.6,22.3c-0.3,1.5,0.7,3,2.2,3.3c0.2,0,0.4,0.1,0.6,0.1h106.4c1.3,0,2.5-0.9,2.8-2.2
			l6.4-31.3c0.3-1.5-0.7-3-2.2-3.3c-0.2,0-0.4-0.1-0.6-0.1h-1.7c-0.8,0-1.5-0.7-1.5-1.5c0-0.8,0.7-1.5,1.5-1.5h1.7
			c3.2,0,5.9,2.6,5.9,5.9c0,0.4,0,0.8-0.1,1.2l-6.4,31.3C459.8,461.1,457.4,463.1,454.6,463.1z"/>
		<path d="M349.5,412.9c-0.7,0.3-1.5,0.4-2.3,0.4c-0.7,0-1.4-0.1-2.1-0.4c-0.6-0.2-1.2-0.6-1.6-1.1c-0.5-0.5-0.8-1.1-1.1-1.7
			c-0.3-0.7-0.4-1.5-0.4-2.3c0-0.8,0.1-1.5,0.4-2.3c0.2-0.6,0.6-1.2,1.1-1.7c0.5-0.5,1-0.8,1.6-1.1c0.7-0.3,1.4-0.4,2.1-0.4
			c0.8,0,1.6,0.1,2.3,0.4c0.6,0.3,1.2,0.7,1.7,1.2l3.8-3.8c-1-0.9-2.2-1.6-3.4-2c-1.4-0.5-2.9-0.8-4.4-0.8c-1.5,0-3,0.3-4.3,0.8
			c-1.3,0.5-2.5,1.2-3.5,2.2c-1,0.9-1.8,2.1-2.3,3.3c-1.1,2.7-1.1,5.7,0,8.4c0.5,1.3,1.3,2.4,2.4,3.4c1,1,2.2,1.7,3.5,2.2
			c1.4,0.5,2.9,0.8,4.3,0.8c1.5,0,3-0.2,4.4-0.7c1.2-0.5,2.4-1.2,3.4-2l-3.9-3.8C350.8,412.2,350.2,412.6,349.5,412.9z"/>
		<path d="M369.6,409.1c1-0.5,1.9-1.2,2.6-2.1c0.6-0.9,1-2.1,0.9-3.2c0-1.1-0.3-2.2-0.9-3.2c-0.6-0.9-1.5-1.7-2.5-2.1
			c-1.2-0.5-2.4-0.8-3.7-0.8h-9V418h5.7v-8.1h0.1l5.2,8.1h6.5l-5.9-8.5C368.9,409.4,369.3,409.3,369.6,409.1z M365.1,401.8
			c0.6,0,1.3,0.2,1.8,0.6c0.8,0.8,0.8,2.2,0,3c-0.5,0.4-1.1,0.6-1.8,0.6h-2.4v-4.2H365.1z"/>
		<polygon points="386.9,397.7 383.5,404 380.1,397.7 373.6,397.7 380.6,409.9 380.6,418 386.4,418 386.4,409.6 393.3,397.7 		"/>
		<path d="M407.4,398.4c-1.1-0.5-2.3-0.8-3.6-0.8h-9.4V418h5.7v-7.1h3.7c1.2,0,2.4-0.3,3.6-0.8c1-0.5,1.9-1.3,2.5-2.3
			c0.6-1.1,1-2.3,0.9-3.5c0-1.2-0.3-2.5-0.9-3.6C409.3,399.7,408.5,399,407.4,398.4z M404.9,405.6c-0.2,0.4-0.5,0.6-0.9,0.8
			c-0.4,0.2-0.8,0.3-1.2,0.3h-2.6v-5h2.6c0.4,0,0.8,0.1,1.2,0.3c0.4,0.2,0.7,0.5,0.9,0.8c0.2,0.4,0.4,0.9,0.3,1.4
			C405.2,404.7,405.1,405.2,404.9,405.6z"/>
		<polygon points="417.7,397.7 411.6,397.7 411.6,402.5 417.7,402.5 417.7,418 423.4,418 423.4,402.5 429.5,402.5 429.5,397.7 
			423.4,397.7 		"/>
		<path d="M451,403.6c-0.5-1.3-1.3-2.4-2.3-3.4c-1-1-2.2-1.7-3.5-2.2c-2.8-1-6-1-8.8,0c-1.3,0.5-2.5,1.2-3.5,2.2
			c-1,0.9-1.8,2.1-2.3,3.3c-0.6,1.3-0.8,2.8-0.8,4.2c0,1.4,0.3,2.9,0.8,4.2c0.5,1.3,1.3,2.4,2.3,3.4c1,1,2.2,1.7,3.5,2.2
			c2.8,1.1,5.9,1.1,8.8,0c1.3-0.5,2.5-1.2,3.5-2.2c1-1,1.8-2.1,2.3-3.4c0.6-1.3,0.8-2.7,0.8-4.2C451.9,406.4,451.6,404.9,451,403.6z
			 M445.4,410.7c-0.4,0.8-1,1.5-1.8,1.9c-0.8,0.5-1.8,0.7-2.8,0.7c-0.7,0-1.5-0.1-2.2-0.4c-0.6-0.2-1.2-0.6-1.6-1.1
			c-0.5-0.5-0.8-1.1-1-1.8c-0.2-0.7-0.4-1.5-0.4-2.3c0-1,0.2-2,0.6-2.9c0.4-0.8,1-1.5,1.8-1.9c0.8-0.5,1.8-0.7,2.8-0.7
			c0.7,0,1.5,0.1,2.2,0.4c0.6,0.3,1.2,0.6,1.6,1.1c0.5,0.5,0.8,1.1,1,1.7c0.2,0.7,0.4,1.5,0.3,2.3
			C446,408.8,445.8,409.8,445.4,410.7z"/>
	</g>
</g>
</svg>
