<svg xmlns="http://www.w3.org/2000/svg" viewBox="0 0 415.33 221.88"><defs><style>.cls-1{fill:#fff;}</style></defs><g id="Layer_2" data-name="Layer 2"><g id="Layer_1-2" data-name="Layer 1"><polygon points="112.74 130.66 94.93 130.66 94.93 144.88 112.74 144.88 112.74 190.21 129.47 190.21 129.47 144.88 147.37 144.88 147.37 130.66 129.47 130.66 112.74 130.66"/><path d="M203.73,138.27a30.91,30.91,0,0,0-10.24-6.48,37.44,37.44,0,0,0-25.84,0,31,31,0,0,0-10.25,6.48,29.39,29.39,0,0,0-6.73,9.79,32.67,32.67,0,0,0,0,24.58,29.25,29.25,0,0,0,6.82,9.87A31.59,31.59,0,0,0,167.81,189a36.8,36.8,0,0,0,25.72,0,30.53,30.53,0,0,0,10.2-6.53,29.52,29.52,0,0,0,6.73-9.86,32.82,32.82,0,0,0,0-24.59A29.1,29.1,0,0,0,203.73,138.27ZM194,169a13.38,13.38,0,0,1-5.27,5.69,15.76,15.76,0,0,1-8.11,2,16.83,16.83,0,0,1-6.32-1.13,13.37,13.37,0,0,1-4.81-3.26,14.32,14.32,0,0,1-3.05-5.15,20.43,20.43,0,0,1-1-6.77,18.7,18.7,0,0,1,1.84-8.57,13.15,13.15,0,0,1,5.26-5.61,16.16,16.16,0,0,1,8.12-2,16.81,16.81,0,0,1,6.31,1.13,13.37,13.37,0,0,1,4.81,3.26,14.22,14.22,0,0,1,3.05,5.1,19.87,19.87,0,0,1,1,6.65A19.09,19.09,0,0,1,194,169Z"/><path d="M273.14,138.27a30.91,30.91,0,0,0-10.24-6.48,37.44,37.44,0,0,0-25.84,0,31,31,0,0,0-10.25,6.48,29.39,29.39,0,0,0-6.73,9.79,32.67,32.67,0,0,0,0,24.58,29.25,29.25,0,0,0,6.82,9.87A31.59,31.59,0,0,0,237.22,189a36.8,36.8,0,0,0,25.72,0,30.53,30.53,0,0,0,10.2-6.53,29.7,29.7,0,0,0,6.74-9.86,32.95,32.95,0,0,0,0-24.59A29.27,29.27,0,0,0,273.14,138.27ZM263.36,169a13.32,13.32,0,0,1-5.27,5.69,15.76,15.76,0,0,1-8.11,2,16.86,16.86,0,0,1-6.32-1.13,13.37,13.37,0,0,1-4.81-3.26,14.32,14.32,0,0,1-3-5.15,20.43,20.43,0,0,1-1-6.77,18.7,18.7,0,0,1,1.84-8.57,13.11,13.11,0,0,1,5.27-5.61,16.1,16.1,0,0,1,8.11-2,16.81,16.81,0,0,1,6.31,1.13,13.37,13.37,0,0,1,4.81,3.26,14.22,14.22,0,0,1,3,5.1,19.87,19.87,0,0,1,1.05,6.65A19.09,19.09,0,0,1,263.36,169Z"/><path d="M372.79,159.14a23.5,23.5,0,0,0-5.4-3.51,56.35,56.35,0,0,0-5.89-2.39c-2-.67-3.8-1.31-5.44-1.92a15.88,15.88,0,0,1-4-2,3.48,3.48,0,0,1-1.51-2.89,2.68,2.68,0,0,1,1.55-2.5,8.69,8.69,0,0,1,4.14-.84,14.05,14.05,0,0,1,6,1.29,20.75,20.75,0,0,1,5.52,4l10.54-10.46a25,25,0,0,0-9.49-6.06,35.37,35.37,0,0,0-12.42-2.13,29.08,29.08,0,0,0-11.79,2.21,16.93,16.93,0,0,0-10.54,16.35,16.89,16.89,0,0,0,1.5,7.49,15.28,15.28,0,0,0,4,5.1,26.39,26.39,0,0,0,5.39,3.47,50.25,50.25,0,0,0,5.9,2.43c2,.67,3.79,1.32,5.43,2a14.8,14.8,0,0,1,4,2.18,3.74,3.74,0,0,1,1.51,3.05,3.2,3.2,0,0,1-1.76,2.88,10.26,10.26,0,0,1-5.18,1.05,18.41,18.41,0,0,1-7.7-1.63,25,25,0,0,1-6.85-4.73l-9.7,9.7V176H305.84V130.66H289.12v59.55H330.6v-7.55a29.51,29.51,0,0,0,9.66,6.33,36.09,36.09,0,0,0,13.25,2.22q11.79,0,18.27-5t6.48-14.09a17.91,17.91,0,0,0-1.5-7.69A15.89,15.89,0,0,0,372.79,159.14Z"/><path d="M389.51,0H29.72A12.76,12.76,0,0,0,17.18,10.43L.22,102.1a12.74,12.74,0,0,0,12.53,15.07H372.09a12.74,12.74,0,0,0,12.53-10.37L402,15.13A12.75,12.75,0,0,0,389.51,0Z"/><path d="M379.24,221.88h-312a17.25,17.25,0,0,1-16.9-20.72l13.46-65.49a4.5,4.5,0,1,1,8.81,1.81L59.13,203a8.26,8.26,0,0,0,8.08,9.91h312a8.3,8.3,0,0,0,8.09-6.59l18.83-91.68a8.26,8.26,0,0,0-8.09-9.91H393.2a4.5,4.5,0,0,1,0-9h4.87A17.25,17.25,0,0,1,415,116.42L396.14,208.1A17.31,17.31,0,0,1,379.24,221.88Z"/><path class="cls-1" d="M71,74.69a18.28,18.28,0,0,1-6.74,1.17,16.32,16.32,0,0,1-6.14-1.13,13.66,13.66,0,0,1-4.81-3.22,14.85,14.85,0,0,1-3.14-5.06A18.88,18.88,0,0,1,49,59.72a18.63,18.63,0,0,1,1.13-6.65A14.85,14.85,0,0,1,53.28,48a13.31,13.31,0,0,1,4.81-3.18,16.93,16.93,0,0,1,6.14-1.09A16.75,16.75,0,0,1,71,45a14.3,14.3,0,0,1,4.89,3.43L87,37.22a31.37,31.37,0,0,0-10-6A35.83,35.83,0,0,0,64.23,29a34.55,34.55,0,0,0-12.71,2.3,32.19,32.19,0,0,0-10.24,6.4,29.16,29.16,0,0,0-6.86,9.7,31.74,31.74,0,0,0,0,24.55,29.67,29.67,0,0,0,6.9,9.83,31.84,31.84,0,0,0,10.33,6.48,34.84,34.84,0,0,0,12.75,2.3,35.7,35.7,0,0,0,13-2.14,33.42,33.42,0,0,0,10-6L76.11,71.26A14.42,14.42,0,0,1,71,74.69Z"/><path class="cls-1" d="M130.05,63.56a18.08,18.08,0,0,0,7.57-6.27,16.3,16.3,0,0,0,2.72-9.36,16.52,16.52,0,0,0-2.68-9.37,18,18,0,0,0-7.36-6.27A24.66,24.66,0,0,0,119.43,30H93.09V89.57h16.72V65.82H110L125.2,89.57h19l-17.42-24.8A21.41,21.41,0,0,0,130.05,63.56Zm-13.3-21.49A7.43,7.43,0,0,1,122,43.74a6.36,6.36,0,0,1,0,8.87,7.43,7.43,0,0,1-5.23,1.67h-6.94V42.07Z"/><polygon class="cls-1" points="180.73 30.03 170.78 48.52 160.83 30.03 141.59 30.03 162.33 65.77 162.33 89.57 179.06 89.57 179.06 65.08 199.55 30.03 180.73 30.03"/><path class="cls-1" d="M240.82,32.33A23.2,23.2,0,0,0,230.41,30h-27.6V89.57h16.72V68.67h10.88a23.2,23.2,0,0,0,10.41-2.3,17.91,17.91,0,0,0,7.36-6.65,19.2,19.2,0,0,0,2.72-10.37,19.12,19.12,0,0,0-2.72-10.41A17.89,17.89,0,0,0,240.82,32.33ZM233.33,53.4a6.27,6.27,0,0,1-2.63,2.43,8,8,0,0,1-3.56.79h-7.61V42.07h7.61a8,8,0,0,1,3.56.8,6.24,6.24,0,0,1,2.63,2.42,7.62,7.62,0,0,1,1,4.06A7.58,7.58,0,0,1,233.33,53.4Z"/><polygon class="cls-1" points="270.97 30.03 253.15 30.03 253.15 44.25 270.97 44.25 270.97 89.57 287.69 89.57 287.69 44.25 305.59 44.25 305.59 30.03 287.69 30.03 270.97 30.03"/><path class="cls-1" d="M368.69,47.47A29.39,29.39,0,0,0,362,37.64a30.64,30.64,0,0,0-10.25-6.48,37.44,37.44,0,0,0-25.84,0,30.5,30.5,0,0,0-10.24,6.48,29.47,29.47,0,0,0-6.74,9.78,31.12,31.12,0,0,0-2.38,12.3A31.12,31.12,0,0,0,308.93,72a29.45,29.45,0,0,0,6.82,9.87A31.71,31.71,0,0,0,326,88.4a36.78,36.78,0,0,0,25.71,0A30.3,30.3,0,0,0,362,81.92a29.76,29.76,0,0,0,6.73-9.87,31.11,31.11,0,0,0,2.38-12.25A31.33,31.33,0,0,0,368.69,47.47ZM352.17,68.33A13.37,13.37,0,0,1,346.9,74a15.73,15.73,0,0,1-8.11,2,16.78,16.78,0,0,1-6.31-1.12,13.39,13.39,0,0,1-4.81-3.27,14,14,0,0,1-3.05-5.14,20.47,20.47,0,0,1-1.05-6.77,18.7,18.7,0,0,1,1.84-8.57,13.12,13.12,0,0,1,5.27-5.61,16,16,0,0,1,8.11-2,16.58,16.58,0,0,1,6.31,1.13A13.28,13.28,0,0,1,349.91,48a14.24,14.24,0,0,1,3.06,5.1,20.09,20.09,0,0,1,1,6.65A19,19,0,0,1,352.17,68.33Z"/></g></g></svg>